SplineFontDB: 3.0
FontName: iconFont
FullName: iconFont
FamilyName: iconFont
Weight: Regular
Copyright: Copyright (c) 2017, Developer
UComments: "2017-7-7: Created with FontForge (http://fontforge.org)"
Version: 001.000
ItalicAngle: 0
UnderlinePosition: -100
UnderlineWidth: 50
Ascent: 800
Descent: 200
InvalidEm: 0
LayerCount: 2
Layer: 0 0 "Back" 1
Layer: 1 0 "Fore" 0
XUID: [1021 402 389677309 3246]
StyleMap: 0x0000
FSType: 0
OS2Version: 0
OS2_WeightWidthSlopeOnly: 0
OS2_UseTypoMetrics: 1
CreationTime: 1499437664
ModificationTime: 1524920518
PfmFamily: 48
TTFWeight: 400
TTFWidth: 5
LineGap: 90
VLineGap: 90
Panose: 2 0 5 9 0 0 0 0 0 0
OS2TypoAscent: 0
OS2TypoAOffset: 1
OS2TypoDescent: 0
OS2TypoDOffset: 1
OS2TypoLinegap: 90
OS2WinAscent: 0
OS2WinAOffset: 1
OS2WinDescent: 0
OS2WinDOffset: 1
HheadAscent: 0
HheadAOffset: 1
HheadDescent: 0
HheadDOffset: 1
OS2SubXSize: 650
OS2SubYSize: 699
OS2SubXOff: 0
OS2SubYOff: 140
OS2SupXSize: 650
OS2SupYSize: 699
OS2SupXOff: 0
OS2SupYOff: 479
OS2StrikeYSize: 49
OS2StrikeYPos: 258
OS2Vendor: 'PfEd'
MarkAttachClasses: 1
DEI: 91125
Encoding: UnicodeFull
UnicodeInterp: none
NameList: AGL For New Fonts
DisplaySize: -48
AntiAlias: 1
FitToEm: 0
WinInfo: 57300 20 8
BeginPrivate: 0
EndPrivate
BeginChars: 1114112 20

StartChar: phone-call
Encoding: 57344 57344 0
Width: 1000
VWidth: 0
VStem: 225.288 35.3604<314.356 393.363> 794.535 34.0205<265.668 319.685> 941.87 34.5566<258.219 334.973>
LayerCount: 2
Fore
SplineSet
0 539.887695312 m 0
 3.482421875 564.80078125 6.96484375 593.731445312 11.5185546875 622.39453125 c 0
 13.9296875 637.6640625 14.7333984375 654.541015625 21.4306640625 667.934570312 c 0
 45.00390625 713.474609375 76.345703125 753.65625 116.795898438 785.534179688 c 0
 143.31640625 806.428710938 172.783203125 805.357421875 195.017578125 780.444335938 c 0
 214.037109375 759.282226562 230.109375 735.708984375 246.986328125 712.938476562 c 0
 287.436523438 658.55859375 327.083007812 604.447265625 366.997070312 550.334960938 c 0
 379.051757812 533.994140625 385.749023438 516.045898438 383.0703125 495.151367188 c 0
 380.659179688 476.131835938 370.479492188 462.469726562 355.74609375 451.486328125 c 0
 331.100585938 433.002929688 306.456054688 414.51953125 281.810546875 396.03515625 c 0
 278.864257812 393.892578125 275.91796875 391.481445312 272.703125 389.874023438 c 0
 259.577148438 383.176757812 258.504882812 381.034179688 260.6484375 365.764648438 c 0
 264.666015625 338.44140625 276.720703125 314.063476562 292.2578125 291.561523438 c 0
 347.44140625 211.46484375 413.340820312 141.81640625 493.436523438 86.0966796875 c 0
 518.618164062 68.6845703125 546.477539062 58.2373046875 576.748046875 53.1474609375 c 0
 581.301757812 52.34375 586.124023438 52.076171875 590.677734375 52.34375 c 0
 596.571289062 52.6123046875 599.786132812 55.291015625 601.125 62.255859375 c 0
 602.196289062 68.9521484375 604.875 75.91796875 608.625976562 81.54296875 c 0
 625.770507812 106.723632812 643.182617188 131.63671875 661.130859375 156.282226562 c 0
 683.900390625 187.891601562 725.421875 194.321289062 759.174804688 171.283203125 c 0
 789.4453125 150.923828125 819.448242188 130.029296875 849.451171875 109.40234375 c 0
 889.901367188 81.54296875 930.88671875 54.21875 970.80078125 25.82421875 c 0
 983.926757812 16.4482421875 995.981445312 4.6611328125 1005.62597656 -7.9296875 c 0
 1018.75195312 -24.8056640625 1017.6796875 -45.1650390625 1007.50097656 -62.8447265625 c 0
 999.196289062 -77.310546875 988.749023438 -91.7763671875 976.158203125 -102.758789062 c 0
 950.709960938 -125.529296875 923.654296875 -146.15625 896.866210938 -167.05078125 c 0
 884.54296875 -176.426757812 869.541992188 -179.909179688 854.004882812 -182.3203125 c 0
 837.127929688 -184.999023438 821.055664062 -190.624023438 804.178710938 -193.838867188 c 0
 748.727539062 -204.018554688 693.811523438 -201.071289062 639.1640625 -188.212890625 c 0
 566.8359375 -171.068359375 497.455078125 -146.69140625 433.967773438 -107.581054688 c 0
 378.248046875 -73.2919921875 326.814453125 -33.1103515625 278.060546875 10.287109375 c 0
 203.321289062 76.453125 139.297851562 151.459960938 89.2041015625 237.985351562 c 0
 47.951171875 309.2421875 19.5556640625 385.3203125 8.0361328125 467.0234375 c 0
 4.5537109375 489.793945312 2.9462890625 512.831054688 0 539.887695312 c 0
805.518554688 -157.674804688 m 0
 805.518554688 -156.334960938 805.518554688 -155.263671875 805.786132812 -153.924804688 c 0
 802.571289062 -151.78125 799.088867188 -149.90625 795.875 -147.495117188 c 0
 781.944335938 -137.047851562 768.014648438 -126.868164062 754.888671875 -115.6171875 c 0
 746.584960938 -108.384765625 747.120117188 -99.2763671875 754.084960938 -91.7763671875 c 0
 761.5859375 -83.7392578125 770.693359375 -82.400390625 778.73046875 -90.4365234375 c 0
 801.5 -112.670898438 829.895507812 -125.529296875 857.219726562 -139.995117188 c 0
 863.6484375 -143.477539062 869.274414062 -143.477539062 874.899414062 -139.19140625 c 0
 894.990234375 -123.654296875 915.885742188 -109.188476562 935.172851562 -92.580078125 c 0
 949.370117188 -80.2568359375 962.497070312 -65.7919921875 974.015625 -50.7900390625 c 0
 984.1953125 -37.1279296875 981.248046875 -26.94921875 967.854492188 -16.2333984375 c 0
 965.443359375 -14.3583984375 963.032226562 -12.7509765625 960.62109375 -10.8759765625 c 0
 937.583984375 4.9287109375 914.813476562 20.4658203125 891.776367188 36.0029296875 c 0
 840.87890625 70.828125 790.249023438 105.65234375 739.3515625 140.208984375 c 0
 720.064453125 153.334960938 699.973632812 152.263671875 686.846679688 131.100585938 c 0
 674.791992188 111.545898438 661.130859375 92.7939453125 647.200195312 74.310546875 c 0
 639.431640625 63.86328125 633.5390625 53.1474609375 633.806640625 39.75390625 c 0
 634.07421875 31.9853515625 630.056640625 26.8955078125 622.288085938 23.9482421875 c 0
 603.268554688 16.7158203125 583.4453125 16.4482421875 563.889648438 19.662109375 c 0
 525.314453125 26.359375 490.490234375 42.4326171875 458.879882812 65.2021484375 c 0
 404.232421875 104.044921875 358.157226562 152.263671875 314.4921875 202.625 c 0
 284.489257812 237.181640625 256.362304688 273.61328125 237.610351562 316.20703125 c 0
 227.69921875 338.9765625 221.538085938 362.549804688 225.288085938 387.462890625 c 0
 226.626953125 396.571289062 223.680664062 400.588867188 217.251953125 405.411132812 c 0
 198.5 419.340820312 180.284179688 434.07421875 167.158203125 454.166015625 c 0
 160.4609375 464.61328125 161.532226562 472.649414062 170.372070312 479.614257812 c 0
 178.409179688 486.04296875 185.909179688 484.16796875 195.017578125 475.328125 c 0
 213.233398438 457.916015625 231.716796875 441.307617188 250.46875 424.698242188 c 0
 252.612304688 422.823242188 258.504882812 422.288085938 260.6484375 423.89453125 c 0
 286.365234375 442.9140625 312.081054688 462.202148438 337.262695312 482.29296875 c 0
 349.048828125 491.668945312 350.65625 505.0625 343.69140625 518.45703125 c 0
 341.548828125 522.475585938 338.869140625 526.493164062 336.190429688 530.244140625 c 0
 283.686523438 602.571289062 231.181640625 674.631835938 178.409179688 746.959960938 c 0
 163.407226562 767.5859375 151.62109375 768.92578125 131.529296875 752.584960938 c 0
 129.119140625 750.709960938 126.708007812 748.834960938 124.833007812 746.423828125 c 0
 103.40234375 720.171875 81.7041015625 694.455078125 61.3447265625 667.666992188 c 0
 51.701171875 654.80859375 44.4677734375 640.075195312 47.6826171875 622.930664062 c 0
 47.951171875 621.055664062 46.611328125 619.180664062 46.34375 617.3046875 c 0
 43.9326171875 604.178710938 39.1103515625 591.052734375 39.37890625 578.194335938 c 0
 40.1826171875 543.370117188 42.861328125 508.27734375 45.00390625 473.185546875 c 0
 48.486328125 413.983398438 64.0234375 357.99609375 91.8828125 305.491210938 c 0
 147.334960938 200.482421875 221.001953125 109.670898438 308.331054688 29.841796875 c 0
 351.99609375 -9.8046875 399.142578125 -45.1650390625 449.236328125 -76.5068359375 c 0
 503.883789062 -110.52734375 563.622070312 -133.029296875 625.501953125 -149.102539062 c 0
 669.434570312 -160.62109375 713.634765625 -168.658203125 759.174804688 -163.30078125 c 0
 774.711914062 -161.157226562 790.249023438 -159.549804688 805.518554688 -157.674804688 c 0
521.83203125 757.407226562 m 0
 536.297851562 753.12109375 554.513671875 748.834960938 572.194335938 742.673828125 c 0
 633.270507812 722.046875 690.59765625 693.383789062 742.298828125 654.541015625 c 0
 798.821289062 612.215820312 846.772460938 561.853515625 885.8828125 503.1875 c 0
 931.690429688 435.145507812 959.817382812 359.87109375 976.426757812 280.04296875 c 0
 978.569335938 269.86328125 972.67578125 261.0234375 962.228515625 258.076171875 c 0
 953.12109375 255.666015625 945.083984375 260.219726562 941.870117188 271.203125 c 0
 935.172851562 295.043945312 929.815429688 319.153320312 922.58203125 342.7265625 c 0
 900.348632812 414.51953125 864.719726562 479.078125 815.965820312 536.405273438 c 0
 742.56640625 622.930664062 650.951171875 681.596679688 542.7265625 714.813476562 c 0
 532.547851562 718.028320312 522.100585938 720.439453125 512.188476562 724.189453125 c 0
 503.616210938 727.404296875 498.794921875 736.780273438 500.401367188 744.280273438 c 0
 502.27734375 752.584960938 509.2421875 757.674804688 521.83203125 757.407226562 c 0
828.555664062 284.329101562 m 0
 828.555664062 273.881835938 822.930664062 267.452148438 813.5546875 265.577148438 c 0
 804.178710938 263.702148438 798.017578125 268.255859375 794.53515625 276.560546875 c 0
 788.91015625 290.7578125 784.087890625 305.491210938 778.194335938 319.689453125 c 0
 723.546875 447.200195312 629.520507812 533.190429688 499.0625 579.534179688 c 0
 495.043945312 580.873046875 490.7578125 582.212890625 487.0078125 584.087890625 c 0
 476.828125 588.91015625 472.541992188 597.481445312 475.489257812 605.786132812 c 0
 478.971679688 615.4296875 489.954101562 620.787109375 500.133789062 616.76953125 c 0
 527.189453125 606.322265625 554.78125 596.678710938 580.498046875 583.551757812 c 0
 662.737304688 541.495117188 728.368164062 480.685546875 776.85546875 401.928710938 c 0
 798.553710938 366.8359375 814.89453125 329.065429688 827.484375 289.954101562 c 0
 828.288085938 287.543945312 828.288085938 285.1328125 828.555664062 284.329101562 c 0
EndSplineSet
EndChar

StartChar: arrow-down
Encoding: 57345 57345 1
Width: 1000
VWidth: 0
LayerCount: 2
Fore
SplineSet
940.310546875 531.783203125 m 0
 952.712890625 519.379882812 952.712890625 499.224609375 939.53515625 486.821289062 c 2
 521.705078125 68.9921875 l 2
 515.50390625 62.791015625 506.9765625 59.689453125 499.224609375 59.689453125 c 0
 490.697265625 59.689453125 482.9453125 62.791015625 476.744140625 68.9921875 c 2
 58.9150390625 486.821289062 l 2
 46.51171875 499.224609375 46.51171875 519.379882812 58.9150390625 531.783203125 c 0
 71.3173828125 544.186523438 91.47265625 544.186523438 103.875976562 531.783203125 c 2
 500 135.659179688 l 1
 895.348632812 531.783203125 l 2
 907.751953125 544.186523438 927.907226562 544.186523438 940.310546875 531.783203125 c 0
EndSplineSet
EndChar

StartChar: email
Encoding: 57346 57346 2
Width: 1000
VWidth: 0
HStem: 1 21G<0 23.5354 976.465 1000>
LayerCount: 2
Fore
SplineSet
500 157.142578125 m 1
 623.713867188 265.428710938 l 1
 977.213867188 -37.7861328125 l 2
 964.428710938 -49.7138671875 947.142578125 -57.142578125 928.071289062 -57.142578125 c 2
 71.9287109375 -57.142578125 l 2
 52.7861328125 -57.142578125 35.4287109375 -49.7138671875 22.5712890625 -37.7861328125 c 2
 376.286132812 265.428710938 l 1
 500 157.142578125 l 1
977.428710938 637.786132812 m 2
 500 228.571289062 l 1
 22.7138671875 637.642578125 l 2
 35.5712890625 649.713867188 52.857421875 657.142578125 71.9287109375 657.142578125 c 2
 928.071289062 657.142578125 l 2
 947.286132812 657.142578125 964.571289062 649.786132812 977.428710938 637.786132812 c 2
0 594.428710938 m 1
 345.213867188 294.357421875 l 1
 0 1 l 1
 0 594.428710938 l 1
654.786132812 294.357421875 m 1
 1000 594.642578125 l 1
 1000 1 l 1
 654.786132812 294.357421875 l 1
EndSplineSet
EndChar

StartChar: check
Encoding: 57347 57347 3
Width: 957
VWidth: 0
Flags: W
LayerCount: 2
Fore
SplineSet
919.84765625 788.549804688 m 1
 954.198242188 773.282226562 965.6484375 727.48046875 946.564453125 693.129882812 c 2
 946.564453125 693.129882812 446.564453125 -173.282226562 438.931640625 -180.916015625 c 0
 412.213867188 -207.633789062 366.412109375 -203.81640625 339.694335938 -177.099609375 c 2
 19.083984375 120.610351562 l 2
 -7.6337890625 147.328125 -3.81640625 193.129882812 22.900390625 219.84765625 c 0
 49.6181640625 246.564453125 95.419921875 242.748046875 122.137695312 216.030273438 c 2
 374.045898438 -16.7939453125 l 1
 824.427734375 761.83203125 l 2
 843.51171875 796.18359375 885.49609375 807.633789062 919.84765625 788.549804688 c 1
EndSplineSet
EndChar

StartChar: baggage
Encoding: 57348 57348 4
Width: 1170
VWidth: 0
Flags: W
HStem: -200 833.295<69.9238 187.457 250.171 333.409 416.647 750.057 833.523 916.762 979.247 1096.79> 716.762 83.2383<416.647 750.057>
VStem: 0 187.457<-129.955 563.377> 250.171 666.591<-200 633.295> 333.409 83.2383<633.295 716.762> 750.057 83.4668<633.295 716.762> 979.247 187.458<-130.082 563.377>
LayerCount: 2
Fore
SplineSet
42.873046875 590.421875 m 0xe2
 71.607421875 618.927734375 105.815429688 633.294921875 145.952148438 633.294921875 c 2
 187.45703125 633.294921875 l 1
 187.45703125 -199.771484375 l 1
 145.723632812 -199.771484375 l 2
 105.815429688 -199.771484375 71.607421875 -185.6328125 42.873046875 -156.8984375 c 0
 14.3671875 -128.392578125 0 -93.95703125 0 -54.0478515625 c 2
 0 487.571289062 l 2
 0 527.48046875 14.3671875 561.6875 42.873046875 590.421875 c 0xe2
833.294921875 737.514648438 m 1
 833.5234375 633.294921875 l 1xee
 916.76171875 633.294921875 l 1
 916.76171875 -200 l 1
 250.170898438 -200 l 1
 250.170898438 633.294921875 l 1xf2
 333.409179688 633.294921875 l 1
 333.409179688 737.514648438 l 2xea
 333.409179688 754.845703125 339.56640625 769.668945312 351.653320312 781.755859375 c 0
 363.740234375 793.842773438 378.563476562 800 395.895507812 800 c 2
 770.809570312 800 l 2
 788.141601562 800 802.96484375 793.842773438 815.051757812 781.755859375 c 0
 827.137695312 769.668945312 833.294921875 754.845703125 833.294921875 737.514648438 c 1
750.056640625 633.294921875 m 1
 750.056640625 716.76171875 l 1
 416.647460938 716.76171875 l 1
 416.647460938 633.294921875 l 1
 750.056640625 633.294921875 l 1
1123.83105469 590.421875 m 0
 1152.33789062 561.6875 1166.70507812 527.48046875 1166.70507812 487.571289062 c 2
 1166.70507812 -54.2763671875 l 2
 1166.70507812 -94.1845703125 1152.56542969 -128.392578125 1123.83105469 -157.126953125 c 0
 1095.09667969 -185.6328125 1060.88964844 -200 1020.98046875 -200 c 2
 979.247070312 -200 l 1
 979.247070312 633.294921875 l 1
 1020.98046875 633.294921875 l 2
 1060.88964844 633.294921875 1095.09667969 619.15625 1123.83105469 590.421875 c 0
EndSplineSet
EndChar

StartChar: wifi
Encoding: 57349 57349 5
Width: 1336
VWidth: 0
Flags: W
HStem: -200 307.692<590.089 743.245>
VStem: 512.82 307.692<-122.732 30.4242>
LayerCount: 2
Fore
SplineSet
512.8203125 -46.154296875 m 0
 512.8203125 38.8134765625 581.700195312 107.692382812 666.666992188 107.692382812 c 0
 751.633789062 107.692382812 820.512695312 38.8134765625 820.512695312 -46.154296875 c 0
 820.512695312 -131.12109375 751.633789062 -200 666.666992188 -200 c 0
 581.700195312 -200 512.8203125 -131.12109375 512.8203125 -46.154296875 c 0
1038.46191406 325.640625 m 1
 1076.92285156 287.1796875 l 2
 1089.74316406 267.948242188 1102.56445312 242.307617188 1102.56445312 216.666992188 c 0
 1102.56445312 191.025390625 1096.15429688 165.384765625 1076.92285156 146.154296875 c 0
 1038.46191406 107.692382812 980.76953125 107.692382812 942.307617188 146.154296875 c 2
 903.845703125 184.615234375 l 2
 782.051757812 306.41015625 583.333007812 306.41015625 461.538085938 184.615234375 c 2
 410.256835938 133.333007812 l 2
 371.794921875 94.8720703125 307.692382812 94.8720703125 269.23046875 133.333007812 c 0
 230.76953125 171.794921875 230.76953125 235.897460938 269.23046875 274.359375 c 2
 301.282226562 306.41015625 l 1
 320.512695312 325.640625 l 2
 512.8203125 517.948242188 820.512695312 530.76953125 1019.23046875 351.282226562 c 0
 1025.640625 344.872070312 1025.640625 344.872070312 1025.640625 344.872070312 c 1
 1032.05175781 332.051757812 l 1
 1032.05175781 332.051757812 1038.46191406 325.640625 1038.46191406 325.640625 c 1
1307.69238281 517.948242188 m 2
 1339.74316406 485.897460938 1339.74316406 428.205078125 1307.69238281 396.154296875 c 0
 1269.23046875 364.102539062 1211.53808594 364.102539062 1179.48730469 396.154296875 c 2
 1134.61523438 441.025390625 l 2
 878.205078125 684.615234375 467.948242188 684.615234375 211.538085938 434.615234375 c 1
 153.845703125 376.922851562 l 2
 115.384765625 344.872070312 57.6923828125 344.872070312 25.640625 376.922851562 c 0
 -6.41015625 415.384765625 -6.41015625 473.077148438 25.640625 505.127929688 c 2
 83.3330078125 556.41015625 l 2
 83.3330078125 562.8203125 89.7431640625 562.8203125 89.7431640625 562.8203125 c 2
 403.845703125 870.512695312 903.845703125 876.922851562 1237.1796875 588.461914062 c 0
 1243.58984375 582.051757812 1243.58984375 582.051757812 1250 575.640625 c 2
 1275.640625 550 l 1
 1307.69238281 517.948242188 l 2
EndSplineSet
EndChar

StartChar: waiting
Encoding: 57350 57350 6
Width: 766
VWidth: 0
Flags: W
HStem: -200 67.29<3.53929 94.3867 172.728 587.266 665.613 756.461> 224.145 111.148<356.5 403.479> 732.71 67.29<3.53929 94.3867 665.613 756.461>
LayerCount: 2
Fore
SplineSet
725.151367188 -132.709960938 m 2
 743.727539062 -132.709960938 758.794921875 -147.774414062 758.794921875 -166.356445312 c 0
 758.794921875 -184.935546875 743.73046875 -200 725.151367188 -200 c 2
 34.8486328125 -200 l 2
 16.2724609375 -200 1.205078125 -184.939453125 1.205078125 -166.356445312 c 0
 1.205078125 -147.77734375 16.26953125 -132.709960938 34.8486328125 -132.709960938 c 2
 94.38671875 -132.709960938 l 1
 94.38671875 -26.451171875 l 2
 94.38671875 80.0810546875 152.828125 178.016601562 258.953125 249.31640625 c 0
 272.380859375 258.33984375 280.723632812 277.760742188 280.723632812 300 c 0
 280.723632812 322.2421875 272.380859375 341.66015625 258.94921875 350.686523438 c 0
 152.828125 421.979492188 94.38671875 519.916015625 94.38671875 626.454101562 c 2
 94.38671875 732.709960938 l 1
 34.8486328125 732.709960938 l 2
 16.2724609375 732.709960938 1.205078125 747.774414062 1.205078125 766.356445312 c 0
 1.205078125 784.932617188 16.26953125 800 34.8486328125 800 c 2
 725.151367188 800 l 2
 743.727539062 800 758.794921875 784.935546875 758.794921875 766.356445312 c 0
 758.794921875 747.77734375 743.73046875 732.709960938 725.151367188 732.709960938 c 2
 665.61328125 732.709960938 l 1
 665.61328125 626.454101562 l 2
 665.606445312 519.922851562 607.161132812 421.990234375 501.033203125 350.68359375 c 0
 487.61328125 341.66015625 479.26953125 322.239257812 479.26953125 300 c 0
 479.26953125 277.760742188 487.61328125 258.33984375 501.040039062 249.309570312 c 0
 607.161132812 178.013671875 665.606445312 80.0771484375 665.606445312 -26.451171875 c 2
 665.61328125 -132.709960938 l 1
 725.151367188 -132.709960938 l 2
346.356445312 428.411132812 m 2
 346.356445312 368.935546875 l 2
 346.356445312 350.356445312 361.420898438 335.29296875 380 335.29296875 c 0
 398.579101562 335.29296875 413.643554688 350.353515625 413.643554688 368.935546875 c 2
 413.643554688 428.411132812 l 2
 413.643554688 446.990234375 398.579101562 462.057617188 380 462.057617188 c 0
 361.420898438 462.057617188 346.356445312 446.990234375 346.356445312 428.411132812 c 2
356.205078125 214.290039062 m 0
 349.942382812 208.02734375 346.346679688 199.346679688 346.346679688 190.501953125 c 0
 346.346679688 181.65625 349.946289062 172.97265625 356.205078125 166.716796875 c 0
 362.4609375 160.458007812 371.141601562 156.858398438 379.990234375 156.858398438 c 0
 388.838867188 156.858398438 397.518554688 160.4609375 403.774414062 166.716796875 c 0
 410.064453125 172.97265625 413.6328125 181.65625 413.6328125 190.501953125 c 0
 413.6328125 199.346679688 410.064453125 208.030273438 403.774414062 214.290039062 c 0
 397.518554688 220.545898438 388.838867188 224.14453125 379.990234375 224.14453125 c 0
 371.141601562 224.14453125 362.4609375 220.541992188 356.205078125 214.290039062 c 0
172.727539062 -133.037109375 m 1
 587.265625 -133.037109375 l 1
 559.818359375 -28.9765625 418.376953125 84.2529296875 400.720703125 98.0576171875 c 0
 388.541992188 107.579101562 371.444335938 107.572265625 359.276367188 98.0576171875 c 0
 341.619140625 84.255859375 200.174804688 -28.9765625 172.727539062 -133.037109375 c 1
EndSplineSet
EndChar

StartChar: price
Encoding: 57351 57351 7
Width: 996
VWidth: 0
Flags: W
LayerCount: 2
Fore
SplineSet
977.587890625 244.4296875 m 2
 1000.671875 212.83984375 990.75 168.088867188 956.326171875 149.256835938 c 2
 933.848632812 136.904296875 l 2
 909.549804688 123.337890625 896.387695312 95.7978515625 901.450195312 68.2587890625 c 2
 906.107421875 43.1494140625 l 2
 913.194335938 4.67578125 884.845703125 -31.3681640625 845.763671875 -33.595703125 c 2
 820.249023438 -35.013671875 l 2
 792.305664062 -36.6337890625 768.411132812 -55.8701171875 761.12109375 -82.8017578125 c 2
 754.438476562 -107.506835938 l 2
 744.111328125 -145.373046875 703.004882812 -165.622070312 666.758789062 -150.637695312 c 2
 643.06640625 -140.91796875 l 2
 617.349609375 -130.185546875 587.583007812 -137.2734375 569.15625 -158.333007812 c 2
 552.348632812 -177.569335938 l 2
 526.631835938 -207.133789062 480.868164062 -207.5390625 454.74609375 -178.379882812 c 2
 437.737304688 -159.344726562 l 2
 418.905273438 -138.48828125 389.137695312 -131.805664062 363.420898438 -142.943359375 c 2
 339.931640625 -153.067382812 l 2
 303.887695312 -168.45703125 262.579101562 -149.017578125 251.64453125 -111.353515625 c 2
 244.556640625 -86.6494140625 l 2
 236.862304688 -59.7177734375 212.765625 -40.8857421875 184.821289062 -39.6708984375 c 2
 159.306640625 -38.658203125 l 2
 120.022460938 -37.0380859375 91.2685546875 -1.3994140625 97.748046875 37.27734375 c 2
 102.000976562 62.5888671875 l 2
 106.658203125 90.1279296875 93.29296875 117.66796875 68.5888671875 130.830078125 c 2
 45.9091796875 142.979492188 l 2
 11.283203125 161.40625 0.7529296875 205.955078125 23.4326171875 237.94921875 c 2
 38.21484375 258.806640625 l 2
 54.4140625 281.486328125 54.009765625 312.0625 37.607421875 334.7421875 c 2
 22.419921875 355.396484375 l 2
 -0.6640625 386.985351562 9.2578125 431.737304688 43.4794921875 450.771484375 c 2
 65.95703125 463.124023438 l 2
 90.255859375 476.690429688 103.41796875 504.23046875 98.35546875 531.76953125 c 2
 93.6982421875 556.87890625 l 2
 86.611328125 595.352539062 114.959960938 631.396484375 154.041992188 633.624023438 c 2
 179.555664062 635.041992188 l 2
 207.5 636.662109375 231.39453125 655.8984375 238.684570312 682.830078125 c 2
 245.3671875 707.53515625 l 2
 255.694335938 745.401367188 296.80078125 765.650390625 333.046875 750.666015625 c 2
 356.739257812 740.946289062 l 2
 382.456054688 730.213867188 412.22265625 737.301757812 430.649414062 758.361328125 c 2
 447.45703125 777.59765625 l 2
 473.173828125 807.162109375 518.9375 807.567382812 545.26171875 778.205078125 c 2
 562.271484375 759.170898438 l 2
 581.103515625 738.314453125 610.870117188 731.631835938 636.586914062 742.768554688 c 2
 660.076171875 752.893554688 l 2
 696.120117188 768.283203125 737.428710938 748.84375 748.364257812 711.1796875 c 2
 755.451171875 686.475585938 l 2
 763.145507812 659.543945312 787.243164062 640.711914062 815.1875 639.497070312 c 2
 840.701171875 638.484375 l 2
 879.985351562 636.864257812 908.739257812 601.224609375 902.259765625 562.548828125 c 2
 898.0078125 537.236328125 l 2
 893.349609375 509.697265625 906.71484375 482.158203125 931.418945312 468.99609375 c 2
 954.098632812 456.846679688 l 2
 988.724609375 438.418945312 999.254882812 393.870117188 976.575195312 361.875976562 c 2
 961.79296875 341.01953125 l 2
 945.59375 318.33984375 945.999023438 287.763671875 962.400390625 265.083984375 c 2
 977.587890625 244.4296875 l 2
620.58984375 133.8671875 m 0
 671.416015625 195.627929688 651.9765625 286.143554688 580.49609375 326.439453125 c 0
 557.81640625 338.994140625 533.921875 348.309570312 510.02734375 358.231445312 c 0
 496.2578125 363.901367188 482.893554688 370.583984375 471.350585938 379.8984375 c 0
 448.266601562 398.123046875 452.721679688 427.889648438 479.653320312 439.634765625 c 0
 487.145507812 442.874023438 495.245117188 444.088867188 503.344726562 444.494140625 c 0
 534.529296875 446.114257812 564.09375 440.444335938 592.240234375 426.876953125 c 0
 606.415039062 419.9921875 611.072265625 422.219726562 615.729492188 436.799804688 c 0
 620.791992188 452.189453125 625.044921875 467.983398438 629.499023438 483.575195312 c 0
 632.537109375 494.10546875 628.689453125 500.990234375 618.767578125 505.4453125 c 0
 600.745117188 513.342773438 582.115234375 519.21484375 562.67578125 522.251953125 c 0
 537.162109375 526.099609375 537.364257812 526.301757812 537.162109375 551.81640625 c 0
 536.958984375 587.860351562 536.958984375 587.860351562 500.915039062 587.860351562 c 0
 495.650390625 587.860351562 490.385742188 588.0625 485.12109375 587.860351562 c 0
 468.111328125 587.455078125 465.276367188 584.41796875 464.87109375 567.408203125 c 0
 464.87109375 559.713867188 464.87109375 552.221679688 464.87109375 544.526367188 c 0
 464.668945312 521.846679688 464.668945312 522.251953125 443.001953125 514.354492188 c 0
 390.7578125 495.3203125 358.359375 459.681640625 354.916992188 402.578125 c 0
 351.87890625 351.954101562 378.203125 317.934570312 419.71484375 293.028320312 c 0
 445.229492188 277.638671875 473.578125 268.526367188 500.712890625 256.579101562 c 0
 511.2421875 251.921875 521.3671875 246.454101562 530.27734375 239.1640625 c 0
 556.3984375 217.700195312 551.5390625 181.858398438 520.557617188 168.291015625 c 0
 503.953125 161.001953125 486.3359375 159.178710938 468.516601562 161.40625 c 0
 440.774414062 164.848632812 414.247070312 172.138671875 389.340820312 185.098632812 c 0
 374.760742188 192.590820312 370.508789062 190.565429688 365.446289062 174.771484375 c 0
 360.991210938 161.204101562 357.346679688 147.231445312 353.499023438 133.461914062 c 0
 348.436523438 114.833007812 350.258789062 110.377929688 367.875976562 101.873046875 c 0
 390.353515625 90.9384765625 414.450195312 85.2685546875 439.154296875 81.4208984375 c 0
 458.391601562 78.3837890625 458.999023438 77.5732421875 459.201171875 57.5263671875 c 0
 459.201171875 48.6171875 459.201171875 39.5048828125 459.404296875 30.392578125 c 0
 459.606445312 19.052734375 465.073242188 12.3701171875 476.818359375 12.16796875 c 0
 490.182617188 11.7626953125 503.547851562 11.7626953125 516.912109375 12.16796875 c 0
 527.846679688 12.3701171875 533.516601562 18.2431640625 533.516601562 29.3798828125 c 0
 533.516601562 41.732421875 534.124023438 54.287109375 533.516601562 66.638671875 c 0
 532.909179688 79.193359375 538.376953125 85.673828125 550.526367188 88.9130859375 c 0
 578.268554688 96.6083984375 602.163085938 111.592773438 620.58984375 133.8671875 c 0
EndSplineSet
EndChar

StartChar: conditioner
Encoding: 57352 57352 8
Width: 884
VWidth: 0
Flags: W
HStem: -200 40.4248<385.291 494.709> -119.968 40.6289<387.011 492.989> -38.0977 44.5088<316.944 518.127> 755.492 44.5078<361.873 563.056>
VStem: 4.31152 61.0459<304.417 507.1> 304.23 61.249<329.527 427.921> 814.847 60.8418<256.465 457.656>
LayerCount: 2
Fore
SplineSet
440 800 m 0
 680.505859375 800 875.688476562 612.985351562 875.688476562 381.053710938 c 0
 875.688476562 149.122070312 680.505859375 -38.09765625 440 -38.09765625 c 0
 199.494140625 -38.09765625 4.3115234375 148.91796875 4.3115234375 380.849609375 c 0
 4.3115234375 612.780273438 199.494140625 800 440 800 c 0
463.887695312 755.4921875 m 0
 381.200195312 755.4921875 314.642578125 720.580078125 314.846679688 676.276367188 c 0
 314.846679688 653.205078125 333.833984375 563.577148438 355.271484375 491.302734375 c 1
 403.045898438 527.84765625 461.4375 519.069335938 471.849609375 516.619140625 c 1
 549.63671875 631.563476562 613.131835938 641.159179688 613.131835938 676.072265625 c 0
 613.131835938 719.762695312 546.370117188 755.4921875 463.887695312 755.4921875 c 0
514.520507812 381.053710938 m 0
 514.520507812 422.294921875 481.241210938 455.573242188 440 455.573242188 c 0
 398.758789062 455.573242188 365.479492188 422.294921875 365.479492188 381.053710938 c 0
 365.479492188 339.8125 398.758789062 306.533203125 440 306.533203125 c 0
 481.241210938 306.533203125 514.520507812 339.8125 514.520507812 381.053710938 c 0
65.357421875 405.553710938 m 0
 65.357421875 323.0703125 101.0859375 255.4921875 144.573242188 256.512695312 c 0
 167.643554688 256.512695312 257.272460938 275.5 329.546875 296.9375 c 1
 294.022460938 345.528320312 301.780273438 403.103515625 304.23046875 413.515625 c 1
 189.28515625 491.302734375 179.689453125 554.797851562 144.77734375 554.797851562 c 0
 101.0859375 554.797851562 65.357421875 488.036132812 65.357421875 405.553710938 c 0
416.112304688 6.4111328125 m 0
 498.799804688 6.4111328125 565.357421875 42.1396484375 565.153320312 85.626953125 c 0
 565.153320312 108.697265625 546.166015625 198.326171875 524.728515625 270.600585938 c 1
 501.044921875 252.4296875 455.108398438 235.279296875 408.150390625 245.284179688 c 1
 330.36328125 130.338867188 266.868164062 120.743164062 266.868164062 85.8310546875 c 0
 266.868164062 42.1396484375 333.629882812 6.4111328125 416.112304688 6.4111328125 c 0
735.22265625 207.921875 m 0
 778.9140625 207.921875 814.846679688 274.479492188 814.846679688 356.961914062 c 0
 814.846679688 439.444335938 779.118164062 506.20703125 735.426757812 506.20703125 c 0
 712.356445312 506.20703125 622.727539062 487.219726562 550.453125 465.782226562 c 1
 593.124023438 421.0703125 578.219726562 359.616210938 575.76953125 349.204101562 c 1
 690.71484375 271.416992188 700.310546875 207.921875 735.22265625 207.921875 c 0
582.915039062 -57.9013671875 m 1
 618.64453125 -166.720703125 l 2
 624.157226562 -183.258789062 612.315429688 -200 594.756835938 -200 c 2
 284.426757812 -200 l 2
 266.868164062 -200 255.026367188 -183.462890625 260.5390625 -166.720703125 c 2
 297.084960938 -57.9013671875 l 1
 342.409179688 -72.1923828125 389.979492188 -79.3388671875 440 -79.3388671875 c 0
 490.020507812 -79.3388671875 537.590820312 -71.3759765625 582.915039062 -57.9013671875 c 1
474.912109375 -159.575195312 m 2
 485.9375 -159.575195312 494.715820312 -150.795898438 494.715820312 -139.771484375 c 0
 494.715820312 -128.74609375 485.9375 -119.967773438 474.912109375 -119.967773438 c 2
 405.087890625 -119.967773438 l 2
 394.0625 -119.967773438 385.284179688 -128.74609375 385.284179688 -139.771484375 c 0
 385.284179688 -150.795898438 394.0625 -159.575195312 405.087890625 -159.575195312 c 2
 474.912109375 -159.575195312 l 2
EndSplineSet
EndChar

StartChar: percentage
Encoding: 57353 57353 9
Width: 998
VWidth: 0
Flags: W
HStem: 173.471 83.6025<595.92 669.431> 343.134 83.6016<330.362 403.873>
VStem: 325.316 83.6016<348.179 421.69> 590.875 83.6016<178.516 252.028>
LayerCount: 2
Fore
SplineSet
325.31640625 384.934570312 m 0
 325.31640625 408.020507812 344.03125 426.735351562 367.1171875 426.735351562 c 0
 390.203125 426.735351562 408.91796875 408.020507812 408.91796875 384.934570312 c 0
 408.91796875 361.848632812 390.203125 343.133789062 367.1171875 343.133789062 c 0
 344.03125 343.133789062 325.31640625 361.848632812 325.31640625 384.934570312 c 0
590.875 215.272460938 m 0
 590.875 238.358398438 609.58984375 257.073242188 632.67578125 257.073242188 c 0
 655.76171875 257.073242188 674.4765625 238.358398438 674.4765625 215.272460938 c 0
 674.4765625 192.186523438 655.76171875 173.470703125 632.67578125 173.470703125 c 0
 609.58984375 173.470703125 590.875 192.186523438 590.875 215.272460938 c 0
977.329101562 244.778320312 m 2
 1000.48339844 213.018554688 990.6484375 168.348632812 956.428710938 149.497070312 c 2
 934.09375 136.998046875 l 2
 909.709960938 123.473632812 896.595703125 95.8115234375 901.71875 68.3544921875 c 2
 906.431640625 43.150390625 l 2
 913.603515625 4.6279296875 885.326171875 -31.435546875 846.188476562 -33.689453125 c 2
 820.575195312 -35.1240234375 l 2
 792.708007812 -36.55859375 768.939453125 -55.8193359375 761.5625 -82.8671875 c 2
 754.80078125 -107.661132812 l 2
 744.350585938 -145.36328125 703.369140625 -165.649414062 667.100585938 -150.69140625 c 2
 643.331054688 -140.85546875 l 2
 617.512695312 -130.200195312 587.801757812 -137.166992188 569.360351562 -158.272460938 c 2
 552.557617188 -177.534179688 l 2
 526.944335938 -207.245117188 481.25 -207.450195312 455.021484375 -178.353515625 c 2
 438.014648438 -159.296875 l 2
 419.368164062 -138.396484375 389.452148438 -131.83984375 363.838867188 -142.905273438 c 2
 340.274414062 -152.9453125 l 2
 304.2109375 -168.518554688 262.819335938 -149.051757812 251.958984375 -111.349609375 c 2
 244.788085938 -86.7607421875 l 2
 237.000976562 -59.91796875 212.822265625 -41.06640625 184.955078125 -39.8369140625 c 2
 159.341796875 -38.8125 l 2
 120.204101562 -37.1728515625 91.3125 -1.51953125 97.869140625 37.0029296875 c 2
 102.172851562 62.20703125 l 2
 106.885742188 89.869140625 93.361328125 117.327148438 68.7724609375 130.440429688 c 2
 46.2333984375 142.530273438 l 2
 11.603515625 161.176757812 1.1533203125 205.641601562 23.693359375 237.607421875 c 2
 38.4462890625 258.5078125 l 2
 54.6337890625 281.45703125 54.224609375 311.98828125 37.83203125 334.52734375 c 2
 22.6689453125 355.223632812 l 2
 -0.4853515625 386.779296875 9.349609375 431.448242188 43.5693359375 450.504882812 c 2
 65.904296875 463.00390625 l 2
 90.2880859375 476.528320312 103.40234375 504.190429688 98.279296875 531.6484375 c 2
 93.56640625 556.8515625 l 2
 86.39453125 595.374023438 114.671875 631.4375 153.809570312 633.69140625 c 2
 179.422851562 635.125976562 l 2
 207.290039062 636.560546875 231.05859375 655.821289062 238.435546875 682.869140625 c 2
 245.197265625 707.663085938 l 2
 255.647460938 745.366210938 296.62890625 765.651367188 332.897460938 750.693359375 c 2
 356.666992188 740.857421875 l 2
 382.485351562 730.202148438 412.196289062 737.169921875 430.637695312 758.274414062 c 2
 447.440429688 777.536132812 l 2
 473.258789062 807.247070312 518.953125 807.452148438 544.975585938 778.35546875 c 2
 561.983398438 759.299804688 l 2
 580.629882812 738.3984375 610.545898438 731.841796875 636.159179688 742.907226562 c 2
 659.723632812 752.947265625 l 2
 695.787109375 768.520507812 737.178710938 749.053710938 748.038085938 711.3515625 c 2
 755.209960938 686.762695312 l 2
 762.997070312 659.919921875 787.17578125 641.068359375 815.04296875 639.838867188 c 2
 840.65625 638.814453125 l 2
 879.793945312 637.174804688 908.685546875 601.521484375 902.127929688 562.999023438 c 2
 897.825195312 537.794921875 l 2
 893.112304688 510.1328125 906.63671875 482.67578125 931.225585938 469.561523438 c 2
 953.764648438 457.471679688 l 2
 988.39453125 438.825195312 998.844726562 394.360351562 976.3046875 362.395507812 c 2
 961.551757812 341.495117188 l 2
 945.36328125 318.544921875 945.7734375 288.013671875 962.166015625 265.474609375 c 2
 977.329101562 244.778320312 l 2
266.09765625 384.934570312 m 0
 266.09765625 329.405273438 311.177734375 284.12109375 366.912109375 284.12109375 c 0
 422.646484375 284.12109375 467.7265625 329.200195312 467.7265625 384.934570312 c 0
 467.7265625 440.669921875 422.646484375 485.749023438 366.912109375 485.749023438 c 0
 311.177734375 485.749023438 266.09765625 440.669921875 266.09765625 384.934570312 c 0
386.377929688 124.908203125 m 2
 650.913085938 443.538085938 l 2
 659.518554688 453.98828125 658.084960938 469.561523438 647.633789062 478.166992188 c 0
 637.18359375 486.7734375 621.611328125 485.338867188 613.004882812 474.888671875 c 2
 348.470703125 156.258789062 l 2
 339.864257812 145.80859375 341.298828125 130.235351562 351.749023438 121.629882812 c 1
 362.19921875 113.0234375 377.772460938 114.458007812 386.377929688 124.908203125 c 2
632.67578125 114.458007812 m 0
 688.411132812 114.458007812 733.490234375 159.537109375 733.490234375 215.272460938 c 0
 733.490234375 271.006835938 688.411132812 316.0859375 632.67578125 316.0859375 c 0
 576.94140625 316.0859375 531.862304688 271.006835938 531.862304688 215.272460938 c 0
 531.862304688 159.537109375 576.94140625 114.458007812 632.67578125 114.458007812 c 0
EndSplineSet
EndChar

StartChar: sedan
Encoding: 57354 57354 10
Width: 2994
VWidth: 0
Flags: W
HStem: -200 69.7207<572.194 738.685 2457 2623.49> -40.0137 521.388<908.821 1306.5 1431.46 1852.48> -16.4365 18.8613<646.012 664.867 2530.82 2549.68> 20.9502 44.459<633.217 677.662 2518.03 2562.47> 33.749 18.8613<595.49 614.345 696.198 715.052 2480.64 2499.49 2581.34 2600.2> 84.2705 18.8623<646.012 664.867 2530.82 2549.68> 217.312 69.0469<572.194 738.685 2457 2623.49>
VStem: 412.26 69.3838<-39.8977 126.594> 595.486 18.8623<33.7522 52.6072> 633.21 44.459<20.9576 65.4018> 646.009 18.8613<-16.4333 2.42161 84.2737 103.13> 696.194 18.8613<33.7522 52.6072> 829.235 69.3838<-39.9724 126.594> 908.387 1379.25<-36.4706 141.334> 1265.41 82.1826<662.097 734.658> 2297.07 69.3838<-39.8977 126.594> 2480.63 18.8623<33.7522 52.6072> 2518.02 44.459<20.9576 65.4018> 2530.82 18.8613<-16.4333 2.42161 84.2737 103.13> 2581.34 18.8613<33.7522 52.6072> 2714.04 69.3838<-39.9724 126.594>
LayerCount: 2
Fore
SplineSet
655.439453125 65.4091796875 m 0x91d998
 667.564453125 65.4091796875 677.668945312 55.3046875 677.668945312 43.1796875 c 0
 677.668945312 31.0546875 667.564453125 20.9501953125 655.439453125 20.9501953125 c 0
 643.314453125 20.9501953125 633.209960938 31.0546875 633.209960938 43.1796875 c 0
 633.209960938 55.3046875 642.977539062 65.4091796875 655.439453125 65.4091796875 c 0x91d998
655.439453125 2.4248046875 m 0xa1b998
 660.4921875 2.4248046875 664.870117188 -1.953125 664.870117188 -7.005859375 c 0
 664.870117188 -12.0576171875 660.4921875 -16.4365234375 655.439453125 -16.4365234375 c 0
 650.387695312 -16.4365234375 646.008789062 -12.0576171875 646.008789062 -7.005859375 c 0
 646.008789062 -1.953125 650.387695312 2.4248046875 655.439453125 2.4248046875 c 0xa1b998
680.36328125 -26.541015625 m 2
 682.721679688 -25.8671875 685.079101562 -24.8564453125 687.099609375 -23.8466796875 c 2
 741.327148438 -77.736328125 l 1
 723.475585938 -90.53515625 702.59375 -99.29296875 680.36328125 -102.998046875 c 1
 680.36328125 -26.541015625 l 2
722.465820312 11.5185546875 m 2
 723.475585938 13.876953125 724.486328125 15.8974609375 725.497070312 18.2548828125 c 2
 801.953125 18.2548828125 l 1
 798.249023438 -4.3115234375 789.154296875 -24.8564453125 776.692382812 -42.7080078125 c 1
 722.465820312 11.5185546875 l 2
722.465820312 75.1767578125 m 2
 776.35546875 129.404296875 l 1
 789.154296875 111.552734375 797.912109375 90.669921875 801.6171875 68.4404296875 c 1
 725.16015625 68.4404296875 l 2
 724.486328125 70.7978515625 723.475585938 73.15625 722.465820312 75.1767578125 c 2
623.779296875 110.541992188 m 2
 569.551757812 164.432617188 l 1
 587.403320312 177.231445312 608.28515625 185.98828125 630.515625 189.693359375 c 1
 630.515625 113.236328125 l 2
 628.157226562 112.563476562 625.799804688 111.552734375 623.779296875 110.541992188 c 2
655.439453125 286.359375 m 0x839998
 789.828125 286.359375 898.619140625 177.568359375 898.619140625 43.1796875 c 0
 898.619140625 -91.208984375 789.828125 -200 655.439453125 -200 c 0
 521.05078125 -200 412.259765625 -91.208984375 412.259765625 43.1796875 c 0
 412.259765625 177.568359375 521.05078125 286.359375 655.439453125 286.359375 c 0x839998
655.439453125 -130.279296875 m 0
 751.431640625 -130.279296875 829.235351562 -52.8125 829.235351562 43.5166015625 c 0
 829.235351562 139.5078125 751.431640625 217.3125 655.439453125 217.3125 c 0
 559.447265625 217.3125 481.643554688 139.5078125 481.643554688 43.5166015625 c 0
 481.643554688 -52.4755859375 559.447265625 -130.279296875 655.439453125 -130.279296875 c 0
655.439453125 84.2705078125 m 0x85b998
 650.05078125 84.2705078125 646.008789062 88.3125 646.008789062 93.701171875 c 0
 646.008789062 98.75390625 650.387695312 103.1328125 655.439453125 103.1328125 c 0
 660.4921875 103.1328125 664.870117188 98.75390625 664.870117188 93.701171875 c 0
 664.870117188 88.6494140625 660.4921875 84.2705078125 655.439453125 84.2705078125 c 0x85b998
741.327148438 164.432617188 m 1
 687.099609375 110.541992188 l 2
 684.7421875 111.552734375 682.721679688 112.563476562 680.36328125 113.236328125 c 2
 680.36328125 189.693359375 l 1
 702.930664062 185.98828125 723.475585938 176.89453125 741.327148438 164.432617188 c 1
588.077148438 75.1767578125 m 2
 587.06640625 72.8193359375 586.392578125 70.4619140625 585.045898438 68.4404296875 c 2
 508.588867188 68.4404296875 l 1
 512.293945312 91.0068359375 521.387695312 111.552734375 533.849609375 129.404296875 c 1
 588.077148438 75.1767578125 l 2
569.551757812 -78.0732421875 m 1
 623.779296875 -24.18359375 l 2
 626.13671875 -25.193359375 628.157226562 -26.2041015625 630.515625 -26.8779296875 c 2
 630.515625 -103.333984375 l 1
 607.94921875 -99.6298828125 587.403320312 -90.53515625 569.551757812 -78.0732421875 c 1
585.381835938 18.2548828125 m 2
 586.392578125 15.8974609375 587.06640625 13.876953125 588.4140625 11.5185546875 c 2
 534.186523438 -42.7080078125 l 1
 521.387695312 -24.8564453125 512.630859375 -3.974609375 508.92578125 18.2548828125 c 1
 585.381835938 18.2548828125 l 2
614.348632812 43.1796875 m 0
 614.348632812 38.126953125 610.306640625 33.7490234375 604.91796875 33.7490234375 c 0
 599.865234375 33.7490234375 595.486328125 38.126953125 595.486328125 43.1796875 c 0
 595.486328125 48.2314453125 599.865234375 52.6103515625 604.91796875 52.6103515625 c 0x899998
 609.969726562 52.6103515625 614.348632812 48.2314453125 614.348632812 43.1796875 c 0
696.194335938 43.1796875 m 0
 696.194335938 48.568359375 700.572265625 52.6103515625 705.625 52.6103515625 c 0
 710.676757812 52.6103515625 715.055664062 48.2314453125 715.055664062 43.1796875 c 0
 715.055664062 38.126953125 710.676757812 33.7490234375 705.625 33.7490234375 c 0
 700.572265625 33.7490234375 696.194335938 38.126953125 696.194335938 43.1796875 c 0
2540.24902344 65.4091796875 m 0x9199d8
 2552.7109375 65.4091796875 2562.47851562 55.3046875 2562.47851562 43.1796875 c 0
 2562.47851562 31.0546875 2552.375 20.9501953125 2540.24902344 20.9501953125 c 0
 2528.12402344 20.9501953125 2518.01953125 31.0546875 2518.01953125 43.1796875 c 0
 2518.01953125 55.3046875 2527.78710938 65.4091796875 2540.24902344 65.4091796875 c 0x9199d8
2508.58886719 110.541992188 m 2
 2454.36132812 164.432617188 l 1
 2472.21289062 177.231445312 2493.09570312 185.98828125 2515.32519531 189.693359375 c 1
 2515.32519531 113.236328125 l 2
 2512.96777344 112.563476562 2510.609375 111.552734375 2508.58886719 110.541992188 c 2
2540.24902344 2.4248046875 m 0xa199b8
 2545.63867188 2.4248046875 2549.6796875 -1.953125 2549.6796875 -7.005859375 c 0
 2549.6796875 -12.0576171875 2545.30175781 -16.4365234375 2540.24902344 -16.4365234375 c 0
 2535.19726562 -16.4365234375 2530.81835938 -12.0576171875 2530.81835938 -7.005859375 c 0
 2530.81835938 -1.953125 2535.19726562 2.4248046875 2540.24902344 2.4248046875 c 0xa199b8
2565.51074219 -26.541015625 m 2
 2567.53125 -25.8671875 2569.88867188 -24.8564453125 2572.24609375 -23.509765625 c 2
 2626.47363281 -77.736328125 l 1
 2608.62207031 -90.53515625 2587.74023438 -99.29296875 2565.51074219 -102.998046875 c 1
 2565.51074219 -26.541015625 l 2
2610.30664062 18.2548828125 m 1
 2687.09960938 18.2548828125 l 1
 2683.39550781 -4.3115234375 2674.30078125 -24.8564453125 2661.83886719 -42.7080078125 c 1
 2607.61230469 11.5185546875 l 2
 2608.62207031 13.876953125 2609.6328125 15.8974609375 2610.30664062 18.2548828125 c 1
2963.62402344 326.103515625 m 0
 2998.31640625 272.549804688 2965.30859375 113.91015625 2965.64453125 113.573242188 c 2
 2972.71777344 38.80078125 l 1
 2972.71777344 38.80078125 2962.27734375 3.0986328125 2935.33203125 -9.36328125 c 0
 2908.38671875 -21.8251953125 2797.91210938 -27.21484375 2797.91210938 -27.21484375 c 1
 2783.42871094 -27.5517578125 l 1
 2790.16503906 -5.3212890625 2793.53320312 18.2548828125 2793.53320312 42.8427734375 c 0
 2793.53320312 182.620117188 2680.36328125 295.790039062 2540.5859375 295.790039062 c 0
 2400.80859375 295.790039062 2287.63867188 182.620117188 2287.63867188 42.8427734375 c 0
 2287.63867188 14.88671875 2292.35449219 -12.39453125 2300.77441406 -37.65625 c 1
 899.29296875 -40.013671875 l 1
 905.018554688 -18.45703125 908.38671875 19.6025390625 908.38671875 43.1796875 c 0xc19d98
 908.38671875 182.95703125 795.216796875 296.126953125 655.439453125 296.126953125 c 0
 515.662109375 296.126953125 402.4921875 182.95703125 402.4921875 43.1796875 c 0
 402.4921875 29.3701171875 403.83984375 15.560546875 405.860351562 2.4248046875 c 2
 391.71484375 3.0986328125 l 1
 391.71484375 3.0986328125 124.958007812 11.1826171875 72.4150390625 49.5791015625 c 0
 62.6474609375 52.6103515625 59.953125 65.4091796875 54.5634765625 72.8193359375 c 0
 43.7861328125 87.9755859375 25.9345703125 105.153320312 10.1044921875 115.594726562 c 1
 9.09375 134.79296875 3.3681640625 153.317382812 1.0107421875 170.83203125 c 0
 2.357421875 176.220703125 3.3681640625 181.610351562 4.7158203125 186.999023438 c 0
 -6.0625 249.309570312 0.3369140625 327.787109375 42.1015625 349.342773438 c 1
 41.7646484375 396.16015625 36.712890625 437.588867188 56.248046875 466.891601562 c 0
 56.921875 482.384765625 53.216796875 490.131835938 42.1015625 493.499023438 c 0
 45.1328125 509.330078125 57.931640625 522.12890625 65.341796875 534.590820312 c 0
 129.672851562 535.6015625 192.657226562 537.28515625 250.92578125 550.7578125 c 0
 282.586914062 558.16796875 314.583984375 554.125976562 343.212890625 563.556640625 c 0
 369.821289062 572.313476562 392.724609375 587.133789062 416.301757812 597.575195312 c 0
 454.361328125 614.416015625 493.095703125 629.909179688 530.481445312 645.739257812 c 0
 620.07421875 683.462890625 711.350585938 712.765625 801.6171875 750.825195312 c 0
 804.311523438 762.61328125 805.658203125 774.739257812 805.321289062 789.895507812 c 1
 819.467773438 793.263671875 837.319335938 803.368164062 857.19140625 798.65234375 c 0
 877.0625 793.9375 888.177734375 778.780273438 907.0390625 773.728515625 c 0
 1368.47460938 810.778320312 1559.78417969 775.076171875 1681.03710938 730.953125 c 0
 1735.93847656 710.744140625 1940.046875 599.258789062 1984.16992188 572.313476562 c 0
 2011.11523438 555.809570312 2039.0703125 540.990234375 2066.35253906 524.149414062 c 0
 2078.81445312 516.40234375 2092.28710938 503.267578125 2107.44335938 499.225585938 c 0
 2182.55273438 488.447265625 2332.09863281 523.8125 2781.74511719 415.358398438 c 0
 2846.07617188 394.139648438 2930.61621094 376.625 2963.62402344 326.103515625 c 0
725.16015625 510.002929688 m 0
 784.439453125 484.7421875 1130.68359375 487.7734375 1306.50097656 482.721679688 c 1
 1292.69140625 559.177734375 1279.21875 659.885742188 1265.40917969 736.678710938 c 1x819b98
 828.224609375 736.005859375 704.951171875 649.78125 683.395507812 630.583007812 c 0
 683.05859375 630.583007812 682.047851562 629.909179688 680.36328125 627.887695312 c 1
 681.037109375 628.561523438 682.047851562 629.235351562 683.395507812 630.583007812 c 0
 685.752929688 630.583007812 641.29296875 565.577148438 725.16015625 510.002929688 c 0
1852.47558594 481.374023438 m 1xc19b98
 1839.00292969 517.75 1849.44433594 552.10546875 1893.56640625 554.462890625 c 1
 1890.87207031 560.188476562 1744.6953125 658.201171875 1670.59570312 682.7890625 c 0
 1576.28808594 713.775390625 1426.06933594 730.953125 1426.06933594 730.953125 c 1
 1426.06933594 730.953125 1350.28613281 734.321289062 1347.59179688 734.658203125 c 1
 1369.82128906 644.055664062 1431.45800781 481.374023438 1431.45800781 481.374023438 c 1
 1431.45800781 481.374023438 1814.07910156 481.374023438 1852.47558594 481.374023438 c 1xc19b98
2540.24902344 286.359375 m 0x839998
 2674.63769531 286.359375 2783.42871094 177.568359375 2783.42871094 43.1796875 c 0
 2783.42871094 -91.208984375 2674.63769531 -200 2540.24902344 -200 c 0
 2405.86035156 -200 2297.06933594 -91.208984375 2297.06933594 43.1796875 c 0
 2297.06933594 177.568359375 2405.86035156 286.359375 2540.24902344 286.359375 c 0x839998
2540.24902344 -130.279296875 m 0
 2636.24121094 -130.279296875 2714.04492188 -52.8125 2714.04492188 43.5166015625 c 0
 2714.04492188 139.5078125 2636.24121094 217.3125 2540.24902344 217.3125 c 0
 2444.2578125 217.3125 2366.453125 139.5078125 2366.453125 43.5166015625 c 0
 2366.453125 -52.4755859375 2444.2578125 -130.279296875 2540.24902344 -130.279296875 c 0
2473.22363281 75.1767578125 m 2
 2472.21289062 72.8193359375 2471.20214844 70.4619140625 2470.19238281 68.4404296875 c 2
 2393.73535156 68.4404296875 l 1
 2397.44042969 91.0068359375 2406.53417969 111.552734375 2418.99609375 129.404296875 c 1
 2473.22363281 75.1767578125 l 2
2499.49511719 43.1796875 m 0
 2499.49511719 38.126953125 2495.11621094 33.7490234375 2490.06445312 33.7490234375 c 0
 2485.01171875 33.7490234375 2480.6328125 38.126953125 2480.6328125 43.1796875 c 0
 2480.6328125 48.2314453125 2485.01171875 52.6103515625 2490.06445312 52.6103515625 c 0x899998
 2495.11621094 52.6103515625 2499.49511719 48.2314453125 2499.49511719 43.1796875 c 0
2540.24902344 84.2705078125 m 0x8599b8
 2535.19726562 84.2705078125 2530.81835938 88.3125 2530.81835938 93.701171875 c 0
 2530.81835938 98.75390625 2535.19726562 103.1328125 2540.24902344 103.1328125 c 0
 2545.30175781 103.1328125 2549.6796875 98.75390625 2549.6796875 93.701171875 c 0
 2549.6796875 88.6494140625 2545.30175781 84.2705078125 2540.24902344 84.2705078125 c 0x8599b8
2626.13671875 164.432617188 m 1
 2571.91015625 110.541992188 l 2
 2569.55175781 111.552734375 2567.53125 112.563476562 2565.17382812 113.236328125 c 2
 2565.17382812 189.693359375 l 1
 2587.74023438 185.98828125 2608.28515625 176.89453125 2626.13671875 164.432617188 c 1
2581.34082031 43.1796875 m 0
 2581.34082031 48.568359375 2585.38183594 52.6103515625 2590.77148438 52.6103515625 c 0
 2595.82324219 52.6103515625 2600.20214844 48.2314453125 2600.20214844 43.1796875 c 0
 2600.20214844 38.126953125 2595.82324219 33.7490234375 2590.77148438 33.7490234375 c 0x899998
 2585.71875 33.7490234375 2581.34082031 38.126953125 2581.34082031 43.1796875 c 0
2454.36132812 -78.0732421875 m 1
 2508.58886719 -24.18359375 l 2
 2510.94628906 -25.193359375 2512.96777344 -26.2041015625 2515.32519531 -26.8779296875 c 2
 2515.32519531 -103.333984375 l 1
 2492.75878906 -99.6298828125 2472.21289062 -90.53515625 2454.36132812 -78.0732421875 c 1
2470.52832031 18.2548828125 m 2
 2471.20214844 15.8974609375 2472.21289062 13.876953125 2473.56054688 11.5185546875 c 2
 2419.33300781 -42.7080078125 l 1
 2406.53417969 -24.8564453125 2397.77734375 -3.974609375 2394.07226562 18.2548828125 c 1
 2470.52832031 18.2548828125 l 2
2610.30664062 68.4404296875 m 2
 2609.29589844 70.4619140625 2608.62207031 72.8193359375 2607.27539062 75.1767578125 c 2
 2661.50195312 129.404296875 l 1
 2674.30078125 111.552734375 2683.05859375 90.669921875 2686.76367188 68.4404296875 c 1
 2610.30664062 68.4404296875 l 2
EndSplineSet
EndChar

StartChar: universal
Encoding: 57355 57355 11
Width: 2590
VWidth: 0
Flags: W
HStem: -200 69.2666<464.748 631.294> -188.649 69.2666<2021.79 2188.34> -16.9385 18.627<538.711 557.331> -5.58789 18.626<2095.75 2114.37> 20.3145 44.2373<525.619 570.423> 31.9561 44.2373<2082.66 2127.47> 33.1201 18.626<488.653 507.273 589.06 607.68> 44.4707 18.626<2045.4 2064.03 2146.1 2164.72> 83.1777 18.627<538.711 557.331> 94.8193 18.627<2095.75 2114.37> 215.6 69.2666<464.748 631.294> 226.95 69.2666<2021.79 2188.34> 308.731 197.031<2006.17 2133.48> 731.606 58.498<1241.82 1407.68>
VStem: 304.715 69.5576<-40.5381 125.404> 488.649 18.627<33.1231 51.7431> 525.611 44.8193<20.3217 64.5445> 538.708 18.626<-16.9355 1.6855 83.1807 101.802> 589.057 18.627<33.1231 51.7431> 721.77 69.5576<-40.5381 125.404> 803.842 1046.27<-41.8752 141.605> 1861.76 69.5576<-29.1877 136.754> 2045.4 18.627<44.4737 63.0937> 2082.65 44.8193<31.9633 76.1859> 2095.75 18.626<-5.58492 13.0351 94.8223 113.443> 2146.1 18.626<44.4737 54.0281> 2278.81 69.5576<-29.1232 136.754> 2361.18 213.329<49.497 153.168>
LayerCount: 2
Fore
SplineSet
548.020507812 64.5517578125 m 0x080fbe70
 560.53515625 64.5517578125 570.430664062 54.65625 570.430664062 42.4326171875 c 0
 570.430664062 30.2099609375 560.53515625 20.314453125 548.020507812 20.314453125 c 0
 535.506835938 20.314453125 525.611328125 30.2099609375 525.611328125 42.4326171875 c 0
 525.611328125 54.65625 535.797851562 64.5517578125 548.020507812 64.5517578125 c 0x080fbe70
548.020507812 1.6884765625 m 0x200f7e70
 553.259765625 1.6884765625 557.333984375 -2.38671875 557.333984375 -7.625 c 0
 557.333984375 -12.8642578125 552.96875 -16.9384765625 548.020507812 -16.9384765625 c 0
 543.073242188 -16.9384765625 538.708007812 -12.8642578125 538.708007812 -7.625 c 0
 538.708007812 -2.38671875 542.782226562 1.6884765625 548.020507812 1.6884765625 c 0x200f7e70
573.049804688 -27.416015625 m 2
 575.377929688 -26.54296875 577.70703125 -25.6689453125 579.744140625 -24.7958984375 c 2
 633.876953125 -78.6376953125 l 1
 616.123046875 -91.15234375 595.459960938 -99.8837890625 573.049804688 -103.666992188 c 1
 573.049804688 -27.416015625 l 2
618.161132812 17.404296875 m 2
 694.703125 17.404296875 l 1
 690.919921875 -4.71484375 681.897460938 -25.3779296875 669.3828125 -43.1318359375 c 1
 615.25 10.7099609375 l 2
 616.4140625 12.7470703125 617.287109375 15.0751953125 618.161132812 17.404296875 c 2
516.297851562 109.37109375 m 2
 462.165039062 163.50390625 l 1
 479.918945312 176.018554688 500.58203125 184.75 522.9921875 188.533203125 c 1
 522.9921875 112.28125 l 2
 520.663085938 111.408203125 518.625976562 110.53515625 516.297851562 109.37109375 c 2
548.020507812 284.866210938 m 0x802f3e70
 682.479492188 284.866210938 791.327148438 176.309570312 791.327148438 42.4326171875 c 0
 791.327148438 -91.443359375 682.479492188 -200 548.020507812 -200 c 0
 413.5625 -200 304.71484375 -91.443359375 304.71484375 42.4326171875 c 0
 304.71484375 176.309570312 413.5625 284.866210938 548.020507812 284.866210938 c 0x802f3e70
548.020507812 -130.733398438 m 0
 644.0625 -130.733398438 721.76953125 -53.3173828125 721.76953125 42.4326171875 c 0
 721.76953125 138.18359375 644.0625 215.599609375 548.020507812 215.599609375 c 0
 451.979492188 215.599609375 374.272460938 138.18359375 374.272460938 42.4326171875 c 0
 374.272460938 -53.3173828125 451.979492188 -130.733398438 548.020507812 -130.733398438 c 0
462.165039062 -78.3466796875 m 1
 516.297851562 -24.2138671875 l 2
 518.334960938 -25.3779296875 520.663085938 -26.2509765625 522.9921875 -27.125 c 2
 522.9921875 -103.375976562 l 1
 500.58203125 -99.5927734375 479.918945312 -90.861328125 462.165039062 -78.3466796875 c 1
507.276367188 42.4326171875 m 0
 507.276367188 37.1943359375 502.91015625 33.1201171875 497.962890625 33.1201171875 c 0
 493.014648438 33.1201171875 488.649414062 37.1943359375 488.649414062 42.4326171875 c 0
 488.649414062 47.671875 493.014648438 51.74609375 497.962890625 51.74609375 c 0x020f3e70
 502.91015625 51.74609375 507.276367188 47.671875 507.276367188 42.4326171875 c 0
618.161132812 67.4619140625 m 2
 617.287109375 69.4990234375 616.4140625 71.828125 615.25 74.15625 c 2
 669.3828125 127.998046875 l 1
 682.188476562 110.244140625 690.919921875 89.8720703125 694.703125 67.4619140625 c 1
 618.161132812 67.4619140625 l 2
548.020507812 83.177734375 m 0x008f7e70
 542.782226562 83.177734375 538.708007812 87.2529296875 538.708007812 92.4912109375 c 0
 538.708007812 97.7294921875 543.073242188 101.8046875 548.020507812 101.8046875 c 0
 552.96875 101.8046875 557.333984375 97.7294921875 557.333984375 92.4912109375 c 0
 557.333984375 87.2529296875 553.259765625 83.177734375 548.020507812 83.177734375 c 0x008f7e70
589.056640625 42.4326171875 m 0
 589.056640625 47.671875 593.422851562 51.74609375 598.370117188 51.74609375 c 0
 603.317382812 51.74609375 607.68359375 47.671875 607.68359375 42.4326171875 c 0
 607.68359375 37.1943359375 603.317382812 33.1201171875 598.370117188 33.1201171875 c 0x020f3e70
 593.422851562 33.1201171875 589.056640625 37.1943359375 589.056640625 42.4326171875 c 0
481.083007812 74.15625 m 2
 479.918945312 71.828125 479.044921875 69.4990234375 478.171875 67.4619140625 c 2
 401.629882812 67.4619140625 l 1
 405.413085938 89.5810546875 414.435546875 110.244140625 426.950195312 127.998046875 c 1
 481.083007812 74.15625 l 2
2174.91308594 78.8125 m 2
 2174.33105469 81.140625 2173.16601562 83.46875 2172.00195312 85.5068359375 c 2
 2226.13476562 139.34765625 l 1
 2238.94042969 121.594726562 2247.671875 101.22265625 2251.45507812 78.8125 c 1
 2174.91308594 78.8125 l 2
478.171875 17.404296875 m 2
 479.044921875 15.0751953125 479.918945312 13.0380859375 481.083007812 10.7099609375 c 2
 426.950195312 -43.1318359375 l 1
 414.14453125 -25.3779296875 405.413085938 -5.005859375 401.629882812 17.404296875 c 1
 478.171875 17.404296875 l 2
633.876953125 163.212890625 m 1
 579.744140625 109.080078125 l 2
 577.70703125 110.244140625 575.377929688 111.1171875 573.049804688 111.990234375 c 2
 573.049804688 188.2421875 l 1
 595.459960938 184.458984375 616.123046875 175.727539062 633.876953125 163.212890625 c 1
2130.09277344 -15.7744140625 m 2
 2132.421875 -14.9013671875 2134.75 -14.0283203125 2136.78710938 -13.1552734375 c 2
 2190.91992188 -66.99609375 l 1
 2173.16601562 -79.5107421875 2152.50292969 -88.2421875 2130.09277344 -92.025390625 c 1
 2130.09277344 -15.7744140625 l 2
2172.29296875 22.3515625 m 2
 2173.16601562 24.388671875 2174.33105469 26.716796875 2175.20410156 29.044921875 c 2
 2251.74609375 29.044921875 l 1
 2247.96289062 6.9267578125 2238.94042969 -13.7373046875 2226.42578125 -31.490234375 c 1
 2172.29296875 22.3515625 l 2
2105.06445312 76.193359375 m 0x040f3f70
 2117.28710938 76.193359375 2127.47363281 66.0068359375 2127.47363281 54.07421875 c 0
 2127.47363281 41.8505859375 2117.578125 31.9560546875 2105.06445312 31.9560546875 c 0
 2092.54980469 31.9560546875 2082.65429688 41.8505859375 2082.65429688 54.07421875 c 0
 2082.65429688 66.2978515625 2092.84082031 76.193359375 2105.06445312 76.193359375 c 0x040f3f70
2105.06445312 13.0380859375 m 0x100f3ef0
 2110.30273438 13.0380859375 2114.37695312 8.9638671875 2114.37695312 3.7255859375 c 0
 2114.37695312 -1.513671875 2110.30273438 -5.587890625 2105.06445312 -5.587890625 c 0
 2100.11621094 -5.587890625 2095.75097656 -1.513671875 2095.75097656 3.7255859375 c 0
 2095.75097656 8.9638671875 2099.82519531 13.0380859375 2105.06445312 13.0380859375 c 0x100f3ef0
38.9990234375 266.240234375 m 1
 38.9990234375 265.658203125 38.9990234375 265.658203125 38.9990234375 266.240234375 c 1
2574.50488281 204.540039062 m 0
 2572.75878906 142.258789062 2561.40820312 42.4326171875 2541.32714844 30.2099609375 c 1
 2551.8046875 36.6123046875 2523.57421875 -0.640625 2505.23828125 -6.751953125 c 0
 2499.41796875 -8.498046875 2490.10449219 -6.751953125 2484.86621094 -9.953125 c 0
 2468.859375 -52.4443359375 2354.48242188 -45.1689453125 2354.48242188 -45.1689453125 c 1
 2341.09472656 -45.1689453125 l 1
 2353.89941406 -14.6103515625 2361.17578125 18.859375 2361.17578125 54.07421875 c 0
 2361.17578125 194.64453125 2246.79882812 308.731445312 2105.64648438 308.731445312 c 0
 1964.49316406 308.731445312 1850.11621094 194.64453125 1850.11621094 54.07421875 c 0
 1850.11621094 19.150390625 1857.1015625 -14.3193359375 1869.90722656 -44.5869140625 c 1
 794.528320312 -43.1318359375 l 1
 794.528320312 -43.1318359375 792.491210938 -43.1318359375 788.999023438 -43.1318359375 c 1
 798.602539062 -16.3564453125 803.841796875 12.4560546875 803.841796875 42.7236328125 c 0
 803.841796875 183.294921875 689.46484375 297.380859375 548.311523438 297.380859375 c 0
 407.159179688 297.380859375 292.782226562 183.294921875 292.782226562 42.7236328125 c 0
 292.782226562 17.6953125 296.274414062 -6.751953125 303.259765625 -29.744140625 c 1
 138.533203125 -16.9384765625 4.365234375 7.7998046875 39.8720703125 54.65625 c 1
 31.72265625 44.1796875 13.9697265625 82.88671875 10.1865234375 95.6923828125 c 0
 -27.06640625 223.749023438 49.767578125 268.568359375 38.9990234375 266.240234375 c 1
 39.5810546875 272.93359375 36.3798828125 380.908203125 36.3798828125 446.682617188 c 0
 40.1630859375 462.689453125 38.4169921875 481.606445312 43.6552734375 496.740234375 c 0
 105.646484375 679.510742188 153.666992188 700.465820312 180.733398438 729.569335938 c 0
 179.278320312 737.71875 144.935546875 741.79296875 193.830078125 759.836914062 c 1
 188.8828125 758.090820312 305.296875 777.880859375 305.296875 777.880859375 c 1
 305.296875 777.880859375 380.092773438 784.284179688 473.806640625 788.067382812 c 0
 630.674804688 794.76171875 840.803710938 800 840.803710938 800 c 1
 840.803710938 800 1059.08007812 795.634765625 1224.97070312 790.104492188 c 0
 1326.25097656 786.612304688 1407.74121094 775.552734375 1407.74121094 775.552734375 c 1
 1407.74121094 775.552734375 1456.05371094 768.859375 1479.91894531 766.53125 c 1
 1479.91894531 771.478515625 1480.20996094 779.044921875 1478.171875 782.247070312 c 0
 1478.171875 784.575195312 1478.171875 786.612304688 1478.171875 788.940429688 c 0
 1496.5078125 792.141601562 1506.40234375 771.1875 1513.38769531 760.127929688 c 0
 1514.55175781 758.090820312 1514.84277344 754.889648438 1516.58886719 753.434570312 c 0
 1519.49902344 752.270507812 1557.04296875 736.262695312 1574.79589844 725.495117188 c 0
 1593.42285156 713.853515625 1612.63085938 705.122070312 1631.25683594 693.48046875 c 0
 1680.73339844 662.048828125 1731.08300781 631.19921875 1778.8125 597.438476562 c 0
 1801.8046875 581.431640625 1824.79589844 565.424804688 1847.78808594 549.126953125 c 0
 1871.65332031 532.538085938 1874.27246094 528.171875 1947.90429688 505.762695312 c 0
 1954.30761719 505.471679688 1960.41894531 505.180664062 1966.82226562 504.889648438 c 0
 2297.43847656 468.509765625 2446.74023438 435.9140625 2385.04101562 453.084960938 c 1
 2420.83789062 443.189453125 2455.18066406 436.205078125 2481.08300781 416.99609375 c 1
 2476.13476562 420.780273438 2578.87109375 358.20703125 2574.50488281 204.540039062 c 0
695.8671875 699.592773438 m 1
 695.8671875 699.592773438 709.545898438 721.12890625 703.143554688 729.278320312 c 0
 700.232421875 737.135742188 676.950195312 737.135742188 676.950195312 737.135742188 c 1
 279.103515625 713.853515625 l 1
 279.103515625 713.853515625 183.061523438 641.385742188 144.353515625 508.963867188 c 1
 607.392578125 507.799804688 560.53515625 508.672851562 560.53515625 508.672851562 c 1
 695.8671875 699.592773438 l 1
815.483398438 501.10546875 m 1
 1127.76464844 501.397460938 l 1
 1127.76464844 723.749023438 l 1
 1127.76464844 723.749023438 872.526367188 741.2109375 832.654296875 718.80078125 c 0
 801.513671875 692.025390625 762.223632812 572.9921875 761.932617188 572.41015625 c 1
 761.932617188 572.701171875 761.932617188 572.9921875 761.932617188 572.9921875 c 2
 761.932617188 572.41015625 761.932617188 572.41015625 761.932617188 572.41015625 c 2
 759.313476562 563.387695312 757.276367188 549.708984375 760.477539062 539.231445312 c 0
 768.334960938 515.075195312 815.483398438 501.10546875 815.483398438 501.10546875 c 1
1636.20507812 602.38671875 m 1
 1644.35351562 597.147460938 1489.52246094 701.047851562 1449.65039062 713.5625 c 0
 1386.20507812 734.225585938 1268.91699219 731.606445312 1266.87988281 731.606445312 c 0
 1256.98535156 728.405273438 1247.08984375 729.278320312 1241.55957031 721.7109375 c 0
 1236.03027344 714.14453125 1236.61230469 703.666992188 1234.28417969 692.31640625 c 1
 1234.28417969 710.0703125 1233.41113281 490.046875 1233.41113281 490.046875 c 1
 1633.5859375 490.046875 l 1
 1633.5859375 490.046875 1601.86230469 557.858398438 1635.33203125 601.513671875 c 0
 1635.62304688 601.513671875 1635.9140625 601.513671875 1636.20507812 601.513671875 c 1
 1636.20507812 601.8046875 1636.20507812 602.095703125 1636.20507812 602.38671875 c 1
2105.06445312 296.216796875 m 0x401f3e70
 2239.52246094 296.216796875 2348.37011719 187.66015625 2348.37011719 53.783203125 c 0
 2348.37011719 -80.0927734375 2239.52246094 -188.649414062 2105.06445312 -188.649414062 c 0
 1970.60546875 -188.649414062 1861.7578125 -80.0927734375 1861.7578125 53.783203125 c 0
 1861.7578125 187.66015625 1970.60546875 296.216796875 2105.06445312 296.216796875 c 0x401f3e70
2105.06445312 -119.3828125 m 0
 2201.10546875 -119.3828125 2278.8125 -41.6767578125 2278.8125 53.783203125 c 0
 2278.8125 149.534179688 2201.10546875 226.950195312 2105.06445312 226.950195312 c 0
 2009.02246094 226.950195312 1931.31542969 149.534179688 1931.31542969 53.783203125 c 0
 1931.31542969 -41.9677734375 2009.02246094 -119.3828125 2105.06445312 -119.3828125 c 0
2146.10058594 53.783203125 m 0
 2146.10058594 59.0224609375 2150.17480469 63.3876953125 2155.41308594 63.0966796875 c 0
 2160.36132812 63.0966796875 2164.7265625 59.0224609375 2164.7265625 53.783203125 c 0
 2164.7265625 48.544921875 2160.65234375 44.470703125 2155.41308594 44.470703125 c 0x010f3e70
 2150.46582031 44.470703125 2146.10058594 48.544921875 2146.10058594 53.783203125 c 0
2073.34082031 120.721679688 m 2
 2019.20800781 174.854492188 l 1
 2036.96191406 187.369140625 2057.625 196.100585938 2080.03515625 199.883789062 c 1
 2080.03515625 123.631835938 l 2
 2077.70703125 122.758789062 2075.66894531 121.885742188 2073.34082031 120.721679688 c 2
2105.06445312 94.8193359375 m 0x004f3ef0
 2099.82519531 94.8193359375 2095.75097656 98.89453125 2095.75097656 104.1328125 c 0
 2095.75097656 109.37109375 2099.82519531 113.446289062 2105.06445312 113.446289062 c 0
 2110.01171875 113.446289062 2114.37695312 109.37109375 2114.37695312 104.1328125 c 0
 2114.37695312 98.89453125 2110.30273438 94.8193359375 2105.06445312 94.8193359375 c 0x004f3ef0
2190.91992188 174.563476562 m 1
 2136.78710938 120.430664062 l 2
 2134.75 121.594726562 2132.421875 122.467773438 2130.09277344 123.340820312 c 2
 2130.09277344 199.592773438 l 1
 2152.50292969 195.80859375 2173.16601562 187.078125 2190.91992188 174.563476562 c 1
2037.83496094 85.5068359375 m 2
 2036.96191406 83.46875 2036.08886719 81.140625 2034.92480469 78.8125 c 2
 1958.38183594 78.8125 l 1
 1962.16503906 100.931640625 1971.1875 121.594726562 1983.70214844 139.34765625 c 1
 2037.83496094 85.5068359375 l 2
2064.02832031 53.783203125 m 0
 2064.02832031 48.544921875 2059.953125 44.470703125 2054.71484375 44.470703125 c 0
 2049.76757812 44.470703125 2045.40136719 48.544921875 2045.40136719 53.783203125 c 0
 2045.40136719 59.0224609375 2049.4765625 63.0966796875 2054.71484375 63.0966796875 c 0x010f3e70
 2059.66210938 63.0966796875 2064.02832031 59.0224609375 2064.02832031 53.783203125 c 0
2019.20800781 -66.99609375 m 1
 2073.34082031 -12.8642578125 l 2
 2075.37792969 -14.0283203125 2077.70703125 -14.9013671875 2080.03515625 -15.7744140625 c 2
 2080.03515625 -92.025390625 l 1
 2057.625 -88.2421875 2036.96191406 -79.5107421875 2019.20800781 -66.99609375 c 1
2035.21582031 29.044921875 m 2
 2035.79785156 26.716796875 2036.96191406 24.388671875 2038.12597656 22.3515625 c 2
 1983.99316406 -31.490234375 l 1
 1971.1875 -13.7373046875 1962.45605469 6.6357421875 1958.67285156 29.044921875 c 1
 2035.21582031 29.044921875 l 2
EndSplineSet
EndChar

StartChar: micro
Encoding: 57356 57356 12
Width: 2490
VWidth: 0
Flags: W
HStem: -200 60.3857<467.502 622.859 1988.33 2143.59> -40.9277 16.2139<537.045 553.254 2057.87 2074.08> -8.49902 38.5801<525.866 564.433 2046.69 2085.26> 2.68359 16.2148<493.433 509.642 580.657 596.866 2014.26 2030.47 2101.21 2117.41> 46.2959 16.2148<537.045 553.254 2065.76 2074.08> 161.756 59.8262<467.44 622.916 1988.27 2143.69>
VStem: 47.2461 275.93<8.27539 156.164> 334.358 60.1064<-66.7784 88.578> 493.431 16.2139<2.68625 18.8958> 525.859 38.5801<-8.4927 30.0747> 537.042 16.2148<-40.9251 -24.7165 46.2985 62.5081> 580.654 16.2148<2.68625 18.8958> 695.835 60.1055<-66.7784 88.6976> 1855.19 60.1064<-66.7784 88.578> 2014.26 16.2148<2.68625 18.8958> 2046.69 38.5791<-8.4927 30.0747> 2057.87 16.2139<-40.9251 -24.7165 46.2985 62.5081> 2101.2 16.2148<2.68625 18.8958> 2216.66 60.1064<-66.7784 88.6976> 2285.43 187.588<0.586914 105.226>
LayerCount: 2
Fore
SplineSet
545.149414062 30.0810546875 m 0xefde70
 555.7734375 30.0810546875 564.439453125 21.4150390625 564.439453125 10.791015625 c 0
 564.439453125 0.16796875 555.7734375 -8.4990234375 545.149414062 -8.4990234375 c 0
 534.526367188 -8.4990234375 525.859375 0.16796875 525.859375 10.791015625 c 0
 525.859375 21.4150390625 534.526367188 30.0810546875 545.149414062 30.0810546875 c 0xefde70
545.149414062 -24.7138671875 m 0
 549.623046875 -24.7138671875 553.256835938 -28.34765625 553.256835938 -32.8203125 c 0
 553.256835938 -37.2939453125 549.623046875 -40.927734375 545.149414062 -40.927734375 c 0
 540.676757812 -40.927734375 537.041992188 -37.2939453125 537.041992188 -32.8203125 c 0xcfbe70
 537.041992188 -28.34765625 540.676757812 -24.7138671875 545.149414062 -24.7138671875 c 0
603.298828125 -16.6064453125 m 2
 604.137695312 -14.9287109375 604.9765625 -12.9716796875 605.814453125 -10.7353515625 c 2
 672.071289062 -10.7353515625 l 1
 668.716796875 -30.3046875 661.168945312 -48.197265625 650.265625 -63.5732421875 c 1
 603.298828125 -16.6064453125 l 2
566.955078125 -49.8740234375 m 2
 568.912109375 -49.03515625 570.869140625 -48.197265625 572.826171875 -47.3583984375 c 2
 619.79296875 -94.3251953125 l 1
 604.137695312 -105.227539062 586.245117188 -112.776367188 566.955078125 -116.130859375 c 1
 566.955078125 -49.8740234375 l 2
603.298828125 38.4677734375 m 2
 650.265625 85.4345703125 l 1
 661.168945312 69.779296875 668.716796875 51.88671875 672.071289062 32.5966796875 c 1
 605.814453125 32.5966796875 l 2
 604.9765625 34.5537109375 604.137695312 36.5107421875 603.298828125 38.4677734375 c 2
517.751953125 68.9404296875 m 2
 470.78515625 115.907226562 l 1
 486.44140625 126.810546875 504.333007812 134.358398438 523.623046875 137.712890625 c 1
 523.623046875 71.4560546875 l 2
 521.666015625 70.6181640625 519.708984375 69.779296875 517.751953125 68.9404296875 c 2
470.78515625 -94.3251953125 m 1
 517.751953125 -47.3583984375 l 2
 519.708984375 -48.4765625 521.666015625 -49.03515625 523.623046875 -49.8740234375 c 2
 523.623046875 -116.130859375 l 1
 504.053710938 -112.776367188 486.161132812 -105.227539062 470.78515625 -94.3251953125 c 1
580.654296875 10.791015625 m 0
 580.654296875 15.2646484375 584.288085938 18.8984375 588.76171875 18.8984375 c 0
 593.234375 18.8984375 596.869140625 15.2646484375 596.869140625 10.791015625 c 0
 596.869140625 6.318359375 593.234375 2.68359375 588.76171875 2.68359375 c 0xdf9e70
 584.288085938 2.68359375 580.654296875 6.318359375 580.654296875 10.791015625 c 0
509.64453125 10.791015625 m 0
 509.64453125 6.318359375 506.010742188 2.68359375 501.538085938 2.68359375 c 0
 497.064453125 2.68359375 493.430664062 6.318359375 493.430664062 10.791015625 c 0
 493.430664062 15.2646484375 497.064453125 18.8984375 501.538085938 18.8984375 c 0
 506.010742188 18.8984375 509.64453125 15.2646484375 509.64453125 10.791015625 c 0
619.513671875 115.907226562 m 1
 572.546875 68.9404296875 l 2
 570.58984375 70.05859375 568.6328125 70.6181640625 566.67578125 71.4560546875 c 2
 566.67578125 137.712890625 l 1
 586.245117188 134.358398438 604.137695312 126.810546875 619.513671875 115.907226562 c 1
545.149414062 46.2958984375 m 0
 540.676757812 46.2958984375 537.041992188 49.9296875 537.041992188 54.4033203125 c 0
 537.041992188 58.8759765625 540.676757812 62.5107421875 545.149414062 62.5107421875 c 0
 549.623046875 62.5107421875 553.256835938 58.8759765625 553.256835938 54.4033203125 c 0xcfbe70
 553.256835938 49.9296875 549.623046875 46.2958984375 545.149414062 46.2958984375 c 0
545.149414062 221.58203125 m 0
 661.727539062 221.58203125 755.940429688 127.369140625 755.940429688 10.791015625 c 0
 755.940429688 -105.5078125 661.448242188 -200 545.149414062 -200 c 0
 428.850585938 -200 334.358398438 -105.5078125 334.358398438 10.791015625 c 0
 334.358398438 127.08984375 428.850585938 221.58203125 545.149414062 221.58203125 c 0
545.149414062 -139.614257812 m 0
 628.459960938 -139.614257812 695.834960938 -72.2392578125 695.834960938 11.0703125 c 0
 695.834960938 94.380859375 628.459960938 161.755859375 545.149414062 161.755859375 c 0
 461.83984375 161.755859375 394.46484375 94.1015625 394.46484375 11.0703125 c 0
 394.46484375 -72.2392578125 462.119140625 -139.614257812 545.149414062 -139.614257812 c 0
484.484375 -10.7353515625 m 2
 485.323242188 -12.9716796875 486.161132812 -14.9287109375 487 -16.6064453125 c 2
 440.033203125 -63.5732421875 l 1
 429.130859375 -47.9169921875 421.58203125 -30.025390625 418.227539062 -10.7353515625 c 1
 484.484375 -10.7353515625 l 2
487 38.4677734375 m 2
 486.161132812 36.5107421875 485.323242188 34.5537109375 484.484375 32.5966796875 c 2
 418.227539062 32.5966796875 l 1
 421.58203125 52.1669921875 429.130859375 70.05859375 440.033203125 85.4345703125 c 1
 487 38.4677734375 l 2
2065.97753906 30.0810546875 m 0xef9f70
 2076.60058594 30.0810546875 2085.26660156 21.4150390625 2085.26660156 10.791015625 c 0
 2085.26660156 0.16796875 2076.60058594 -8.4990234375 2065.97753906 -8.4990234375 c 0
 2055.35351562 -8.4990234375 2046.6875 0.16796875 2046.6875 10.791015625 c 0
 2046.6875 21.4150390625 2055.35351562 30.0810546875 2065.97753906 30.0810546875 c 0xef9f70
2087.50390625 -49.8740234375 m 2
 2089.45996094 -49.03515625 2091.41699219 -48.197265625 2093.37402344 -47.3583984375 c 2
 2140.34082031 -94.3251953125 l 1
 2124.68554688 -105.227539062 2106.79296875 -112.776367188 2087.50390625 -116.130859375 c 1
 2087.50390625 -49.8740234375 l 2
2140.34082031 115.907226562 m 1
 2093.65429688 68.9404296875 l 2
 2091.69726562 70.05859375 2089.74023438 70.6181640625 2087.78320312 71.4560546875 c 2
 2087.78320312 137.712890625 l 1
 2107.07324219 134.358398438 2124.96484375 126.810546875 2140.34082031 115.907226562 c 1
2124.12597656 -16.6064453125 m 2
 2124.96484375 -14.9287109375 2125.80371094 -12.9716796875 2126.64257812 -10.7353515625 c 2
 2192.89941406 -10.7353515625 l 1
 2189.54394531 -30.3046875 2181.99609375 -48.197265625 2171.09277344 -63.5732421875 c 1
 2124.12597656 -16.6064453125 l 2
2469.38769531 140.788085938 m 0
 2474.97949219 132.680664062 2472.7421875 113.390625 2473.02246094 99.9716796875 c 0
 2473.02246094 27.5654296875 2440.59277344 27.5654296875 2394.74414062 2.962890625 c 0
 2384.40039062 -2.3486328125 2385.79785156 -11.853515625 2379.36816406 -20.7998046875 c 0
 2372.65820312 -30.3046875 2343.58398438 -44.5625 2343.58398438 -44.5625 c 1
 2278.72558594 -44.5625 l 1
 2283.19824219 -27.2294921875 2285.43457031 -8.7783203125 2285.43457031 9.9521484375 c 0
 2285.43457031 131.283203125 2187.02832031 229.689453125 2065.69726562 229.689453125 c 0
 1944.3671875 229.689453125 1845.95996094 131.283203125 1845.95996094 9.9521484375 c 0
 1845.95996094 -8.7783203125 1848.19726562 -27.2294921875 1852.66992188 -44.5625 c 1
 759.575195312 -44.5625 l 1
 763.768554688 -27.5087890625 766.004882812 -9.896484375 766.004882812 8.275390625 c 0
 766.004882812 130.444335938 666.759765625 229.689453125 544.590820312 229.689453125 c 0
 422.420898438 229.689453125 323.17578125 130.444335938 323.17578125 8.275390625 c 0
 323.17578125 -9.896484375 325.412109375 -27.5087890625 329.60546875 -44.5625 c 1
 319.821289062 -44.5625 l 1
 319.821289062 -44.5625 153.759765625 -19.1220703125 122.168945312 -19.1220703125 c 0
 67.095703125 -19.1220703125 -45.8486328125 33.9951171875 20.12890625 147.77734375 c 0
 24.322265625 155.045898438 47.24609375 148.336914062 47.24609375 156.1640625 c 0
 47.525390625 471.791992188 107.631835938 636.734375 130.8359375 699.63671875 c 0
 142.018554688 729.829101562 145.09375 760.022460938 169.974609375 776.237304688 c 0
 182.834960938 784.624023438 201.006835938 795.806640625 217.780273438 799.720703125 c 0
 505.451171875 799.720703125 1512.16113281 800 1512.16113281 800 c 1
 1512.16113281 800 1625.6640625 793.849609375 1627.90039062 793.290039062 c 0
 1722.11328125 770.92578125 1818.84277344 742.129882812 2062.06347656 507.296875 c 1
 2061.50390625 507.296875 2062.34277344 506.737304688 2064.29980469 505.33984375 c 1
 2063.4609375 505.8984375 2062.90234375 506.737304688 2062.06347656 507.296875 c 1
 2064.02050781 507.296875 2091.41699219 493.0390625 2122.16894531 482.974609375 c 0
 2148.72753906 474.307617188 2172.77050781 471.232421875 2198.76953125 462.56640625 c 0
 2246.01660156 446.630859375 2292.98339844 425.384765625 2336.59472656 406.374023438 c 0
 2367.62695312 392.67578125 2407.04492188 378.137695312 2424.65722656 350.741210938 c 1
 2420.18457031 356.611328125 2473.30175781 232.764648438 2426.89453125 166.228515625 c 1
 2435.00097656 153.6484375 2461.83984375 160.916992188 2469.38769531 140.788085938 c 0
1809.33789062 548.671875 m 0
 1821.35839844 551.467773438 1895.72265625 540.005859375 1912.77636719 539.446289062 c 1
 1877.83105469 582.219726562 1818.00390625 682.024414062 1656.13671875 728.991210938 c 0
 1593.79394531 743.807617188 1504.33300781 740.172851562 1456.80761719 732.345703125 c 1
 1457.92578125 727.872070312 1458.484375 468.4375 1458.484375 468.4375 c 1
 1458.484375 468.4375 1676.54492188 466.201171875 1787.25195312 465.08203125 c 1
 1787.53125 541.962890625 1802.06835938 537.76953125 1809.33789062 548.671875 c 0
2038.29980469 68.9404296875 m 2
 1991.61328125 115.907226562 l 1
 2006.98925781 126.810546875 2024.88085938 134.358398438 2044.17089844 137.712890625 c 1
 2044.17089844 71.4560546875 l 2
 2042.21386719 70.6181640625 2040.25683594 69.779296875 2038.29980469 68.9404296875 c 2
2124.12597656 38.4677734375 m 2
 2171.09277344 85.4345703125 l 1
 2181.99609375 69.779296875 2189.54394531 51.88671875 2192.89941406 32.5966796875 c 1
 2126.64257812 32.5966796875 l 2
 2125.80371094 34.5537109375 2124.96484375 36.5107421875 2124.12597656 38.4677734375 c 2
2065.97753906 221.58203125 m 0
 2182.27539062 221.58203125 2276.76855469 127.369140625 2276.76855469 10.791015625 c 0
 2276.76855469 -105.5078125 2182.27539062 -200 2065.97753906 -200 c 0
 1949.67871094 -200 1855.18554688 -105.5078125 1855.18554688 10.791015625 c 0
 1855.18554688 127.08984375 1949.67871094 221.58203125 2065.97753906 221.58203125 c 0
2065.97753906 -139.614257812 m 0
 2149.0078125 -139.614257812 2216.3828125 -72.2392578125 2216.66210938 11.0703125 c 0
 2216.66210938 94.380859375 2149.28710938 161.755859375 2065.97753906 161.755859375 c 0
 1982.66699219 161.755859375 1915.29199219 94.1015625 1915.29199219 11.0703125 c 0
 1915.29199219 -72.2392578125 1982.94628906 -139.614257812 2065.97753906 -139.614257812 c 0
2065.97753906 -24.7138671875 m 0
 2070.45019531 -24.7138671875 2074.08398438 -28.34765625 2074.08398438 -32.8203125 c 0
 2074.08398438 -37.2939453125 2070.45019531 -40.927734375 2065.97753906 -40.927734375 c 0
 2061.50390625 -40.927734375 2057.87011719 -37.2939453125 2057.87011719 -32.8203125 c 0xcf9ef0
 2057.87011719 -28.34765625 2061.50390625 -24.7138671875 2065.97753906 -24.7138671875 c 0
2030.47265625 10.791015625 m 0
 2030.47265625 6.318359375 2026.55859375 2.68359375 2022.36523438 2.68359375 c 0
 2017.89160156 2.68359375 2014.2578125 6.318359375 2014.2578125 10.791015625 c 0
 2014.2578125 15.2646484375 2017.89160156 18.8984375 2022.36523438 18.8984375 c 0xdf9e70
 2026.83789062 18.8984375 2030.47265625 15.2646484375 2030.47265625 10.791015625 c 0
2007.54785156 38.4677734375 m 2
 2006.70996094 36.5107421875 2005.87109375 34.5537109375 2005.03222656 32.5966796875 c 2
 1938.77539062 32.5966796875 l 1
 1942.12988281 52.1669921875 1949.67871094 70.05859375 1960.58105469 85.4345703125 c 1
 2007.54785156 38.4677734375 l 2
2101.20214844 10.791015625 m 0
 2101.20214844 15.2646484375 2105.11621094 18.8984375 2109.30957031 18.8984375 c 0
 2113.78222656 18.8984375 2117.41699219 15.2646484375 2117.41699219 10.791015625 c 0
 2117.41699219 6.318359375 2113.78222656 2.68359375 2109.30957031 2.68359375 c 0
 2104.83691406 2.68359375 2101.20214844 6.318359375 2101.20214844 10.791015625 c 0
2065.97753906 46.2958984375 m 0
 2061.22460938 46.2958984375 2057.58984375 49.9296875 2057.87011719 54.4033203125 c 0
 2057.87011719 58.8759765625 2061.50390625 62.5107421875 2065.97753906 62.5107421875 c 0
 2070.45019531 62.5107421875 2074.08398438 58.8759765625 2074.08398438 54.4033203125 c 0xcf9ef0
 2074.08398438 49.9296875 2070.45019531 46.2958984375 2065.97753906 46.2958984375 c 0
1991.33398438 -94.3251953125 m 1
 2038.02050781 -47.3583984375 l 2
 2039.97753906 -48.4765625 2041.93457031 -49.03515625 2043.89160156 -49.8740234375 c 2
 2043.89160156 -116.130859375 l 1
 2024.6015625 -112.776367188 2006.70996094 -105.227539062 1991.33398438 -94.3251953125 c 1
2005.31152344 -10.7353515625 m 2
 2005.87109375 -12.9716796875 2006.70996094 -14.9287109375 2007.828125 -16.6064453125 c 2
 1960.86132812 -63.5732421875 l 1
 1949.95800781 -47.9169921875 1942.41015625 -30.025390625 1939.0546875 -10.7353515625 c 1
 2005.31152344 -10.7353515625 l 2
EndSplineSet
EndChar

StartChar: star
Encoding: 57357 57357 13
Width: 1054
VWidth: 0
Flags: W
LayerCount: 2
Fore
SplineSet
554.6875 780.46875 m 2
 667.96875 448.4375 l 1
 1019.53125 444.53125 l 2
 1050.78125 444.53125 1062.5 405.46875 1039.0625 385.9375 c 2
 753.90625 175 l 1
 859.375 -160.9375 l 2
 867.1875 -188.28125 835.9375 -211.71875 812.5 -196.09375 c 2
 527.34375 7.03125 l 1
 242.1875 -196.09375 l 2
 218.75 -211.71875 183.59375 -188.28125 195.3125 -160.9375 c 2
 292.96875 175 l 1
 11.71875 385.9375 l 2
 -11.71875 401.5625 0 440.625 31.25 440.625 c 2
 382.8125 444.53125 l 1
 496.09375 776.5625 l 2
 503.90625 807.8125 542.96875 807.8125 554.6875 780.46875 c 2
EndSplineSet
EndChar

StartChar: crown
Encoding: 57358 57358 14
Width: 1495
VWidth: 0
Flags: W
HStem: -200 183.333<170.076 1321.04> 72.2227 266.666<289.76 447.656 1039.01 1198.17>
VStem: 0 175.556<510.392 625.163> 655.556 175.556<655.102 769.607> 1311.11 175.556<511.918 625.719>
CounterMasks: 1 38
LayerCount: 2
Fore
SplineSet
1427.77734375 485.555664062 m 0
 1427.77734375 481.666992188 1427.77734375 477.22265625 1426.66699219 473.333007812 c 2
 1335 106.666992188 l 2
 1330.55566406 88.3330078125 1313.88867188 75 1295 75 c 2
 745 72.22265625 l 1
 194.444335938 72.22265625 l 2
 175.555664062 72.22265625 158.888671875 85 153.888671875 103.888671875 c 2
 62.22265625 471.666992188 l 2
 61.111328125 476.111328125 61.111328125 480.555664062 61.111328125 484.444335938 c 0
 25.5556640625 495.555664062 0 528.888671875 0 567.77734375 c 0
 0 616.111328125 39.4443359375 655.555664062 87.77734375 655.555664062 c 0
 136.111328125 655.555664062 175.555664062 616.111328125 175.555664062 567.77734375 c 0
 175.555664062 540.555664062 163.333007812 516.111328125 143.333007812 500 c 1
 258.333007812 384.444335938 l 2
 286.666992188 355.555664062 327.22265625 338.888671875 368.333007812 338.888671875 c 0
 417.22265625 338.888671875 463.333007812 362.22265625 492.77734375 400.555664062 c 2
 681.111328125 650.555664062 l 1
 665 666.111328125 655.555664062 688.333007812 655.555664062 712.22265625 c 0
 655.555664062 760.555664062 695 800 743.333007812 800 c 0
 791.666992188 800 831.111328125 760.555664062 831.111328125 712.22265625 c 0
 831.111328125 688.888671875 821.666992188 667.77734375 806.666992188 651.666992188 c 1
 993.888671875 401.111328125 l 2
 1023.33300781 362.22265625 1069.44433594 338.888671875 1118.33300781 338.888671875 c 0
 1160 338.888671875 1198.88867188 355 1228.33300781 384.444335938 c 2
 1343.88867188 500 l 1
 1323.88867188 516.111328125 1311.11132812 540.555664062 1311.11132812 568.333007812 c 0
 1311.11132812 616.666992188 1350.55566406 656.111328125 1398.88867188 656.111328125 c 0
 1447.22265625 656.111328125 1486.66699219 616.666992188 1486.66699219 568.333007812 c 0
 1486.11132812 530 1461.66699219 497.77734375 1427.77734375 485.555664062 c 0
1326.11132812 -58.3330078125 m 2
 1326.11132812 -158.333007812 l 2
 1326.11132812 -181.111328125 1307.22265625 -200 1284.44433594 -200 c 2
 206.666992188 -200 l 2
 183.888671875 -200 165 -181.111328125 165 -158.333007812 c 2
 165 -58.3330078125 l 2
 165 -35.5556640625 183.888671875 -16.6669921875 206.666992188 -16.6669921875 c 2
 1284.44433594 -16.6669921875 l 2
 1307.22265625 -16.6669921875 1326.11132812 -35.5556640625 1326.11132812 -58.3330078125 c 2
EndSplineSet
EndChar

StartChar: user-with-plate
Encoding: 57359 57359 15
Width: 1084
VWidth: 0
Flags: W
HStem: -200.055 47.8594<120.336 959.229> 173.098 240.123<259.863 381.618 697.892 819.647> 173.098 163.745<438.991 640.519> 173.098 47.75<120.336 168.272 911.238 959.229>
VStem: 72.5312 47.8047<-152.195 -109.417 131.363 173.098> 328.81 422.001<494.258 683.741> 959.229 47.8047<-152.195 -109.362 131.363 173.098>
LayerCount: 2
Fore
SplineSet
539.809570312 377.999023438 m 0x8e
 481.564453125 377.999023438 431.836914062 398.604492188 390.625976562 439.815429688 c 0
 349.415039062 481.026367188 328.809570312 530.754882812 328.809570312 588.999023438 c 0
 328.809570312 647.244140625 349.415039062 696.97265625 390.625976562 738.18359375 c 0
 431.836914062 779.39453125 481.564453125 800 539.809570312 800 c 0
 598.0546875 800 647.783203125 779.39453125 688.994140625 738.18359375 c 0
 730.205078125 696.97265625 750.810546875 647.244140625 750.810546875 588.999023438 c 0
 750.810546875 530.754882812 730.205078125 481.026367188 688.994140625 439.815429688 c 0
 647.783203125 398.604492188 598.0546875 377.999023438 539.809570312 377.999023438 c 0x8e
1054.50878906 103.203125 m 0
 1070.66308594 78.2021484375 1079.56445312 45.5078125 1079.56445312 11.0009765625 c 0
 1079.56445312 -23.5068359375 1070.66308594 -56.255859375 1054.50878906 -81.2568359375 c 0
 1045.99121094 -94.3896484375 1035.88085938 -104.830078125 1024.45214844 -112.302734375 c 0
 1018.90234375 -115.9296875 1013.02246094 -118.841796875 1007.03320312 -120.9296875 c 1
 1007.03320312 -176.15234375 l 2
 1007.03320312 -189.33984375 996.318359375 -200.0546875 983.130859375 -200.0546875 c 2
 96.43359375 -200.0546875 l 2
 83.24609375 -200.0546875 72.53125 -189.33984375 72.53125 -176.15234375 c 2
 72.53125 -120.984375 l 1
 66.4873046875 -118.841796875 60.6630859375 -115.984375 55.11328125 -112.357421875 c 0
 43.62890625 -104.884765625 33.5185546875 -94.4443359375 25.056640625 -81.3125 c 0
 8.9013671875 -56.310546875 0 -23.5615234375 0 10.9453125 c 0
 0 45.453125 8.9013671875 78.2021484375 25.056640625 103.203125 c 0
 33.5732421875 116.3359375 43.68359375 126.776367188 55.11328125 134.249023438 c 0
 60.6630859375 137.875976562 66.5419921875 140.788085938 72.53125 142.875976562 c 1
 72.53125 196.9453125 l 2
 72.53125 210.1328125 83.24609375 220.84765625 96.43359375 220.84765625 c 2
 163.580078125 220.84765625 l 1x9e
 167.26171875 240.133789062 171.767578125 258.102539062 177.09765625 274.750976562 c 0
 182.977539062 293.048828125 190.834960938 310.907226562 200.725585938 328.326171875 c 0
 210.616210938 345.744140625 221.990234375 360.580078125 234.79296875 372.833984375 c 0
 247.595703125 385.086914062 263.255859375 394.922851562 281.7734375 402.23046875 c 0
 300.291015625 409.5390625 320.676757812 413.220703125 343.041015625 413.220703125 c 0xce
 346.337890625 413.220703125 354.030273438 409.264648438 366.119140625 401.40625 c 0
 378.208007812 393.548828125 391.834960938 384.7578125 407.055664062 375.03125 c 0
 422.276367188 365.305664062 442.057617188 356.513671875 466.399414062 348.65625 c 0
 490.741210938 340.798828125 515.193359375 336.842773438 539.754882812 336.842773438 c 0xae
 564.31640625 336.842773438 588.768554688 340.798828125 613.110351562 348.65625 c 0
 637.452148438 356.513671875 657.234375 365.305664062 672.454101562 375.03125 c 0
 687.674804688 384.7578125 701.302734375 393.548828125 713.390625 401.40625 c 0
 725.479492188 409.264648438 733.171875 413.220703125 736.46875 413.220703125 c 0xce
 758.833007812 413.220703125 779.21875 409.5390625 797.736328125 402.23046875 c 0
 816.25390625 394.922851562 831.9140625 385.086914062 844.716796875 372.833984375 c 0
 857.51953125 360.580078125 868.893554688 345.744140625 878.784179688 328.326171875 c 0
 888.674804688 310.907226562 896.533203125 293.048828125 902.412109375 274.750976562 c 0
 907.7421875 258.046875 912.248046875 240.079101562 915.9296875 220.84765625 c 1
 983.130859375 220.84765625 l 2x9e
 996.318359375 220.84765625 1007.03320312 210.1328125 1007.03320312 196.9453125 c 2
 1007.03320312 142.875976562 l 1
 1013.078125 140.733398438 1018.90234375 137.875976562 1024.45214844 134.249023438 c 0
 1035.93652344 126.776367188 1046.046875 116.3359375 1054.50878906 103.203125 c 0
120.3359375 -152.1953125 m 1
 959.228515625 -152.1953125 l 1
 959.228515625 -120.9296875 l 1
 953.184570312 -118.787109375 947.359375 -115.9296875 941.809570312 -112.302734375 c 0
 930.326171875 -104.830078125 920.215820312 -94.3896484375 911.752929688 -81.2568359375 c 0
 895.598632812 -56.255859375 886.697265625 -23.5068359375 886.697265625 11.0009765625 c 0
 886.697265625 45.5078125 895.598632812 78.2568359375 911.752929688 103.258789062 c 0
 920.270507812 116.390625 930.380859375 126.831054688 941.809570312 134.303710938 c 0
 947.359375 137.930664062 953.239257812 140.842773438 959.228515625 142.930664062 c 1
 959.228515625 173.09765625 l 1
 120.3359375 173.09765625 l 1
 120.3359375 142.930664062 l 1
 126.380859375 140.788085938 132.205078125 137.930664062 137.754882812 134.303710938 c 0
 149.239257812 126.831054688 159.349609375 116.390625 167.811523438 103.258789062 c 0
 183.965820312 78.2568359375 192.868164062 45.5078125 192.868164062 11.0009765625 c 0
 192.868164062 -23.5068359375 183.965820312 -56.255859375 167.811523438 -81.2568359375 c 0
 159.294921875 -94.3896484375 149.18359375 -104.830078125 137.754882812 -112.302734375 c 0
 132.205078125 -115.9296875 126.325195312 -118.841796875 120.3359375 -120.9296875 c 1
 120.3359375 -152.1953125 l 1
EndSplineSet
EndChar

StartChar: paw
Encoding: 57360 57360 16
Width: 979
VWidth: 0
Flags: W
HStem: -186.607 607.144<398.482 574.721>
VStem: 0 209.821<349.602 514.305> 89.2861 790.178<-160.645 27.7298> 236.607 209.821<543.077 701.805> 522.321 209.821<539.021 701.805> 758.929 214.285<351.59 514.305>
LayerCount: 2
Fore
SplineSet
486.607421875 420.536132812 m 0xa0
 700.892578125 420.536132812 883.928710938 76.7861328125 879.463867188 -92.857421875 c 0
 879.463867188 -168.75 839.286132812 -195.536132812 714.286132812 -195.536132812 c 0
 687.5 -195.536132812 651.786132812 -191.071289062 616.071289062 -191.071289062 c 0
 575.892578125 -186.607421875 531.25 -186.607421875 486.607421875 -186.607421875 c 0
 441.963867188 -186.607421875 397.321289062 -191.071289062 352.678710938 -195.536132812 c 0
 316.963867188 -200 285.713867188 -200 254.463867188 -200 c 0
 191.963867188 -200 156.25 -191.071289062 129.463867188 -177.678710938 c 0
 111.607421875 -164.286132812 89.2861328125 -146.428710938 89.2861328125 -92.857421875 c 0
 89.2861328125 76.7861328125 272.321289062 420.536132812 486.607421875 420.536132812 c 0xa0
209.821289062 411.607421875 m 0xc0
 209.821289062 353.571289062 165.178710938 308.928710938 107.142578125 308.928710938 c 0
 49.107421875 308.928710938 0 353.571289062 0 411.607421875 c 0
 0 451.786132812 35.7138671875 612.5 107.142578125 612.5 c 0
 174.107421875 612.5 209.821289062 451.786132812 209.821289062 411.607421875 c 0xc0
343.75 496.428710938 m 0
 285.713867188 496.428710938 241.071289062 545.536132812 236.607421875 599.107421875 c 0
 236.607421875 639.286132812 272.321289062 800 343.75 800 c 0
 410.713867188 800 446.428710938 639.286132812 446.428710938 599.107421875 c 0x90
 446.428710938 545.536132812 401.786132812 496.428710938 343.75 496.428710938 c 0
866.071289062 612.5 m 0
 937.5 612.5 973.213867188 451.786132812 973.213867188 411.607421875 c 0
 973.213867188 358.036132812 924.107421875 308.928710938 866.071289062 308.928710938 c 0
 808.036132812 308.928710938 758.928710938 353.571289062 758.928710938 411.607421875 c 0x84
 758.928710938 451.786132812 794.642578125 612.5 866.071289062 612.5 c 0
629.463867188 496.428710938 m 0
 571.428710938 496.428710938 522.321289062 545.536132812 522.321289062 599.107421875 c 0
 522.321289062 639.286132812 558.036132812 800 629.463867188 800 c 0
 696.428710938 800 732.142578125 639.286132812 732.142578125 599.107421875 c 0x88
 732.142578125 545.536132812 687.5 496.428710938 629.463867188 496.428710938 c 0
EndSplineSet
EndChar

StartChar: snowflake
Encoding: 57361 57361 17
Width: 883
VWidth: 0
Flags: W
HStem: 188.432 91.7051<6.90757 80.4737 794.528 868.48> 319.857 91.7051<6.90486 80.4778 794.524 868.094>
VStem: 139.207 90.5391<-48.8246 4.24022 595.758 648.823> 391.098 92.8047<-192.615 -32.2031 81.25 218.809 381.193 518.75 632.203 792.615> 645.254 88.2559<-49.9845 4.23436 595.768 649.988>
LayerCount: 2
Fore
SplineSet
868.78125 210.861328125 m 0
 862.431640625 199.751953125 851.623046875 191.306640625 838.224609375 188.4375 c 2
 745.49609375 174.498046875 l 1
 849.162109375 114.037109375 l 2
 871.35546875 101.091796875 878.9609375 72.423828125 866.146484375 50.00390625 c 0
 853.33203125 27.583984375 824.953125 19.90234375 802.759765625 32.845703125 c 2
 699.09375 93.306640625 l 1
 733.509765625 5.212890625 l 2
 741.43359375 -19.40625 728.103515625 -45.853515625 703.73046875 -53.859375 c 0
 679.359375 -61.865234375 653.177734375 -48.396484375 645.25390625 -23.77734375 c 2
 601.83203125 150.03125 l 1
 483.90234375 218.810546875 l 1
 483.90234375 81.25 l 1
 611.197265625 -43.642578125 l 2
 628.341796875 -62.884765625 626.796875 -92.5234375 607.748046875 -109.841796875 c 0
 600.479492188 -116.484375 586.587890625 -121.875 576.741210938 -121.875 c 0
 576.736328125 -121.875 576.727539062 -121.875 576.72265625 -121.875 c 0
 576.716796875 -121.875 576.70703125 -121.875 576.700195312 -121.875 c 0
 565.255859375 -121.875 549.806640625 -114.922851562 542.216796875 -106.357421875 c 2
 483.90234375 -32.203125 l 1
 483.90234375 -153.125 l 2
 483.90234375 -179.013671875 463.126953125 -200 437.5 -200 c 0
 411.873046875 -200 391.09765625 -179.013671875 391.09765625 -153.125 c 2
 391.09765625 -32.203125 l 1
 332.783203125 -106.357421875 l 2
 315.638671875 -125.599609375 286.302734375 -127.162109375 267.251953125 -109.841796875 c 0
 248.203125 -92.5234375 246.658203125 -62.884765625 263.802734375 -43.642578125 c 2
 391.09765625 81.25 l 1
 391.09765625 218.80859375 l 1
 273.16796875 150.029296875 l 1
 229.74609375 -23.779296875 l 2
 221.822265625 -48.3984375 195.640625 -61.8671875 171.26953125 -53.861328125 c 0
 159.92578125 -50.13671875 150.970703125 -42.41015625 145.44140625 -32.736328125 c 0
 142 -26.724609375 139.20703125 -16.2236328125 139.20703125 -9.296875 c 0
 139.20703125 -5.193359375 140.23046875 1.3046875 141.4921875 5.208984375 c 2
 175.90625 93.302734375 l 1
 72.240234375 32.841796875 l 2
 50.046875 19.8984375 21.666015625 27.580078125 8.853515625 50 c 0
 -3.958984375 72.419921875 3.64453125 101.087890625 25.837890625 114.03125 c 2
 129.50390625 174.4921875 l 1
 36.775390625 188.431640625 l 2
 11.70703125 193.80859375 -4.298828125 218.693359375 1.0234375 244.01953125 c 0
 6.345703125 269.34375 30.982421875 285.513671875 56.05078125 280.13671875 c 2
 226.765625 231.220703125 l 1
 359.375 300 l 1
 226.765625 368.775390625 l 1
 56.048828125 319.857421875 l 2
 30.98046875 314.48046875 6.34375 330.65234375 1.021484375 355.974609375 c 0
 -4.302734375 381.298828125 11.705078125 406.18359375 36.7734375 411.5625 c 2
 129.501953125 425.501953125 l 1
 25.8359375 485.962890625 l 2
 3.642578125 498.908203125 -3.962890625 527.576171875 8.8515625 549.99609375 c 0
 21.666015625 572.416015625 50.044921875 580.09765625 72.23828125 567.154296875 c 2
 175.904296875 506.693359375 l 1
 141.490234375 594.787109375 l 2
 133.56640625 619.40625 146.8984375 645.853515625 171.26953125 653.859375 c 0
 195.640625 661.865234375 221.822265625 648.396484375 229.74609375 623.77734375 c 2
 273.16796875 449.96875 l 1
 391.09765625 381.189453125 l 1
 391.09765625 518.75 l 1
 263.8046875 643.642578125 l 2
 246.662109375 662.884765625 248.205078125 692.5234375 267.25390625 709.841796875 c 0
 286.302734375 727.162109375 315.638671875 725.599609375 332.78515625 706.357421875 c 2
 391.099609375 632.203125 l 1
 391.099609375 753.125 l 2
 391.099609375 779.013671875 411.875 800 437.501953125 800 c 0
 463.12890625 800 483.904296875 779.013671875 483.904296875 753.125 c 2
 483.904296875 632.203125 l 1
 542.21875 706.357421875 l 2
 559.361328125 725.599609375 588.701171875 727.16015625 607.75 709.841796875 c 0
 626.798828125 692.5234375 628.34375 662.884765625 611.19921875 643.642578125 c 2
 483.904296875 518.75 l 1
 483.904296875 381.193359375 l 1
 601.833984375 449.97265625 l 1
 645.255859375 623.78125 l 2
 653.1796875 648.400390625 679.361328125 661.869140625 703.732421875 653.86328125 c 0
 728.10546875 645.857421875 741.435546875 619.412109375 733.51171875 594.791015625 c 2
 699.095703125 506.697265625 l 1
 802.76171875 567.158203125 l 2
 824.955078125 580.1015625 853.333984375 572.419921875 866.1484375 550 c 0
 878.962890625 527.580078125 871.357421875 498.91015625 849.1640625 485.966796875 c 2
 745.498046875 425.505859375 l 1
 838.2265625 411.56640625 l 2
 863.29296875 406.189453125 879.30078125 381.302734375 873.978515625 355.978515625 c 0
 868.65625 330.654296875 844.01953125 314.484375 818.951171875 319.861328125 c 2
 648.234375 368.779296875 l 1
 515.625 300 l 1
 648.234375 231.220703125 l 1
 818.951171875 280.138671875 l 2
 844.01953125 285.515625 868.65625 269.345703125 873.978515625 244.021484375 c 0
 874.54296875 241.356445312 875.001953125 236.981445312 875.001953125 234.2578125 c 0
 875.001953125 227.34375 872.21484375 216.862304688 868.78125 210.861328125 c 0
EndSplineSet
EndChar

StartChar: no-smoking
Encoding: 57362 57362 18
Width: 1009
VWidth: 0
Flags: W
HStem: -200 55.2266<364.422 633.926> 744.773 55.2266<366.075 635.368>
VStem: 0 55.2266<165.008 433.925> 944.947 55.0527<166.028 435.905>
LayerCount: 2
Fore
SplineSet
795.64453125 153.484375 m 2
 800.173828125 151.7421875 802.439453125 146.689453125 800.697265625 142.16015625 c 2
 742.682617188 -5.052734375 l 2
 740.940429688 -9.4072265625 735.888671875 -11.6728515625 731.358398438 -9.9306640625 c 2
 682.229492188 9.4072265625 l 2
 677.875 11.1494140625 675.609375 16.2021484375 677.3515625 20.7314453125 c 2
 735.366210938 167.944335938 l 2
 737.108398438 172.299804688 742.16015625 174.564453125 746.689453125 172.822265625 c 2
 795.64453125 153.484375 l 2
779.09375 566.375976562 m 2
 780.8359375 570.731445312 786.0625 572.99609375 790.41796875 571.25390625 c 2
 839.546875 551.916015625 l 2
 843.90234375 550.173828125 846.166992188 545.122070312 844.424804688 540.592773438 c 2
 819.337890625 477.00390625 l 2
 816.724609375 470.03515625 817.770507812 462.1953125 822.125 456.09765625 c 0
 862.891601562 397.038085938 871.602539062 321.951171875 845.122070312 255.052734375 c 2
 832.926757812 224.041992188 l 2
 831.184570312 219.686523438 826.1328125 217.421875 821.602539062 219.1640625 c 2
 772.473632812 238.501953125 l 2
 768.118164062 240.244140625 765.853515625 245.295898438 767.595703125 249.826171875 c 2
 779.791015625 280.8359375 l 2
 800.173828125 332.055664062 793.03125 389.721679688 760.975585938 434.668945312 c 0
 746.864257812 454.35546875 745.122070312 480.313476562 754.006835938 502.787109375 c 2
 779.09375 566.375976562 l 2
697.560546875 192.16015625 m 2
 702.090820312 190.41796875 704.35546875 185.366210938 702.439453125 181.010742188 c 2
 644.424804688 33.7978515625 l 2
 642.682617188 29.4423828125 637.630859375 27.177734375 633.100585938 28.919921875 c 2
 583.971679688 48.2578125 l 2
 579.6171875 50 577.3515625 55.052734375 579.09375 59.58203125 c 2
 637.108398438 206.620117188 l 2
 638.850585938 210.975585938 643.90234375 213.240234375 648.431640625 211.498046875 c 2
 697.560546875 192.16015625 l 2
960.626953125 494.599609375 m 0
 986.759765625 432.926757812 1000 367.421875 1000 300 c 0
 1000 232.578125 986.759765625 167.073242188 960.626953125 105.400390625 c 0
 935.366210938 45.818359375 899.477539062 -7.4912109375 853.484375 -53.484375 c 0
 807.665039062 -99.4775390625 754.181640625 -135.366210938 694.599609375 -160.626953125 c 0
 632.926757812 -186.759765625 567.421875 -200 500 -200 c 0
 432.578125 -200 367.073242188 -186.759765625 305.400390625 -160.626953125 c 0
 245.818359375 -135.366210938 192.508789062 -99.4775390625 146.515625 -53.484375 c 0
 100.522460938 -7.6650390625 64.6337890625 45.818359375 39.373046875 105.400390625 c 0
 13.240234375 167.073242188 0 232.578125 0 300 c 0
 0 367.421875 13.240234375 432.926757812 39.373046875 494.599609375 c 0
 64.6337890625 554.181640625 100.522460938 607.491210938 146.515625 653.484375 c 0
 192.334960938 699.477539062 245.818359375 735.540039062 305.400390625 760.626953125 c 0
 367.073242188 786.759765625 432.578125 800 500 800 c 0
 567.421875 800 632.926757812 786.759765625 694.599609375 760.626953125 c 0
 754.181640625 735.366210938 807.491210938 699.477539062 853.484375 653.484375 c 0
 899.477539062 607.665039062 935.366210938 554.181640625 960.626953125 494.599609375 c 0
55.2265625 300 m 0
 55.2265625 175.26171875 106.96875 62.369140625 189.895507812 -18.466796875 c 1
 334.3203125 147.038085938 l 1
 134.146484375 225.958007812 l 2
 107.142578125 236.759765625 93.90234375 267.421875 104.529296875 294.424804688 c 2
 130.313476562 359.755859375 l 2
 141.115234375 386.759765625 171.77734375 400 198.780273438 389.373046875 c 2
 457.491210938 287.282226562 l 1
 645.64453125 501.7421875 l 1
 646.689453125 513.762695312 649.302734375 525.784179688 654.006835938 537.456054688 c 2
 680.8359375 605.2265625 l 2
 682.578125 609.58203125 687.630859375 611.846679688 692.16015625 610.104492188 c 2
 728.397460938 595.818359375 l 1
 775.26171875 649.12890625 l 1
 699.477539062 708.884765625 603.833007812 744.7734375 500 744.7734375 c 0
 254.704101562 744.7734375 55.2265625 545.295898438 55.2265625 300 c 0
371.602539062 188.67578125 m 1
 420.731445312 244.7734375 l 1
 359.407226562 268.989257812 l 1
 333.624023438 203.658203125 l 1
 371.602539062 188.67578125 l 1
475.26171875 223.344726562 m 1
 426.1328125 167.247070312 l 1
 513.588867188 132.752929688 l 1
 539.373046875 198.083984375 l 1
 475.26171875 223.344726562 l 1
500 -144.7734375 m 0
 745.295898438 -144.7734375 944.7734375 54.7041015625 944.947265625 299.826171875 c 0
 944.947265625 421.428710938 895.818359375 531.881835938 816.55078125 612.1953125 c 1
 716.55078125 498.2578125 l 1
 712.1953125 473.693359375 718.815429688 448.2578125 733.100585938 426.655273438 c 0
 759.233398438 387.282226562 764.459960938 337.8046875 747.038085938 293.553710938 c 2
 734.842773438 262.543945312 l 2
 733.100585938 258.188476562 728.048828125 255.923828125 723.51953125 257.665039062 c 2
 674.390625 277.00390625 l 2
 670.03515625 278.74609375 667.770507812 283.797851562 669.51171875 288.327148438 c 2
 681.70703125 319.337890625 l 2
 692.682617188 347.38671875 689.373046875 378.74609375 672.822265625 403.833007812 c 0
 666.899414062 412.717773438 662.020507812 421.951171875 657.83984375 431.533203125 c 1
 512.1953125 265.331054688 l 1
 591.463867188 234.146484375 l 2
 600.522460938 230.48828125 604.877929688 220.3828125 601.393554688 211.32421875 c 2
 549.826171875 80.48828125 l 2
 546.166992188 71.4287109375 536.0625 67.0732421875 527.00390625 70.5576171875 c 2
 389.198242188 124.913085938 l 1
 231.70703125 -54.529296875 l 1
 306.271484375 -111.149414062 399.302734375 -144.7734375 500 -144.7734375 c 0
EndSplineSet
EndChar

StartChar: silence
Encoding: 57363 57363 19
Width: 1132
VWidth: 0
Flags: W
VStem: 0 660.674<38.563 561.437>
LayerCount: 2
Fore
SplineSet
1017.97753906 298.875976562 m 1
 1103.37109375 208.98828125 l 2
 1123.59570312 188.763671875 1123.59570312 155.056640625 1103.37109375 134.831054688 c 0
 1094.38183594 123.595703125 1080.8984375 119.1015625 1067.41601562 119.1015625 c 0
 1053.93261719 119.1015625 1042.69628906 123.595703125 1031.4609375 134.831054688 c 2
 941.573242188 224.71875 l 1
 851.685546875 134.831054688 l 2
 842.696289062 123.595703125 829.213867188 119.1015625 815.73046875 119.1015625 c 0
 802.247070312 119.1015625 788.763671875 123.595703125 779.775390625 134.831054688 c 0
 759.55078125 155.056640625 759.55078125 188.763671875 779.775390625 208.98828125 c 2
 869.663085938 298.875976562 l 1
 779.775390625 388.763671875 l 2
 759.55078125 408.98828125 759.55078125 442.696289062 779.775390625 462.920898438 c 0
 800 483.146484375 833.708007812 483.146484375 853.932617188 462.920898438 c 2
 943.8203125 373.034179688 l 1
 1033.70800781 462.920898438 l 2
 1053.93261719 483.146484375 1087.640625 483.146484375 1107.86523438 462.920898438 c 0
 1128.08984375 442.696289062 1128.08984375 408.98828125 1107.86523438 388.763671875 c 2
 1017.97753906 298.875976562 l 1
631.4609375 795.505859375 m 0
 647.19140625 786.516601562 658.426757812 768.5390625 660.673828125 748.314453125 c 2
 660.673828125 -150.561523438 l 2
 660.673828125 -170.786132812 649.438476562 -188.763671875 631.4609375 -197.752929688 c 0
 624.71875 -200 615.73046875 -202.247070312 608.98828125 -202.247070312 c 0
 597.752929688 -202.247070312 586.516601562 -197.752929688 577.528320312 -191.01171875 c 2
 287.640625 29.2138671875 l 1
 51.685546875 29.2138671875 l 2
 22.4716796875 29.2138671875 0 51.685546875 0 80.8984375 c 2
 0 519.1015625 l 2
 0 548.314453125 22.4716796875 570.786132812 51.685546875 570.786132812 c 2
 287.640625 570.786132812 l 1
 577.528320312 791.01171875 l 2
 593.258789062 802.247070312 613.483398438 804.494140625 631.4609375 795.505859375 c 0
EndSplineSet
EndChar
